<svg id="svg" version="1.1" xmlns="http://www.w3.org/2000/svg" style="display: block;" viewBox="0 0 225 225"><path d="M0 0 C74.25 0 148.5 0 225 0 C225 74.25 225 148.5 225 225 C150.75 225 76.5 225 0 225 C0 150.75 0 76.5 0 0 Z " transform="translate(0,0)" style="fill: #079CF0;"/><path d="M0 0 C4.50581258 3.86212507 8.30439064 7.23388662 12.1875 11.5625 C13.14030915 12.61747285 14.09344579 13.67215 15.046875 14.7265625 C15.53220703 15.26571289 16.01753906 15.80486328 16.51757812 16.36035156 C18.96957788 19.07241189 21.45427346 21.75405901 23.9375 24.4375 C24.94145415 25.52469535 25.94536014 26.61193518 26.94921875 27.69921875 C29.53226116 30.49508989 32.11740859 33.28899126 34.70825195 36.07763672 C35.7317252 37.18781752 36.74730875 38.30532675 37.75463867 39.43017578 C39.92429166 41.84331325 41.96170077 43.9701526 44.53125 45.97265625 C47.2660131 48.24039114 48.54226824 49.72321835 50 53 C52.72088633 71.03873143 48.87556628 89.04120406 41.9453125 105.640625 C33.63096505 124.70930929 20.582776 141.40411535 3.52441406 153.38037109 C-11.39106296 163.49901147 -27.95897389 170.90220627 -46 173 C-46.9276416 173.10876465 -47.8552832 173.2175293 -48.81103516 173.32958984 C-55.87391809 174.04028467 -63.02726911 174.60949016 -70 173 C-74.80945736 170.473578 -77.70197311 166.23998968 -80.69335938 161.83447266 C-82.85355387 158.80164354 -85.43158227 156.18637835 -88 153.5 C-88.99818222 152.4225039 -89.99427708 151.34307036 -90.98828125 150.26171875 C-93.02564296 148.05441093 -95.06491701 145.84889022 -97.10546875 143.64453125 C-103.12208454 137.14169556 -109.09556984 130.60520848 -115 124 C-114.01 123.505 -114.01 123.505 -113 123 C-112.34993484 123.30279877 -111.69986969 123.60559753 -111.03010559 123.91757202 C-106.55255388 125.51706323 -102.23981644 125.30856507 -97.51831055 125.31884766 C-96.46419479 125.32889328 -95.41007904 125.3389389 -94.32402039 125.34928894 C-90.84492531 125.38014331 -87.36590728 125.39716258 -83.88671875 125.4140625 C-81.47247148 125.43277231 -79.05823076 125.45234558 -76.64399719 125.4727478 C-70.29336406 125.52409465 -63.94270972 125.56370687 -57.59197998 125.60089111 C-51.11009463 125.64091464 -44.6282977 125.69201455 -38.14648438 125.7421875 C-25.43104549 125.83897714 -12.71557018 125.92234863 0 126 C0 117.42 0 108.84 0 100 C-32.67 100 -65.34 100 -99 100 C-102 96 -102 96 -102.39440918 93.00904846 C-102.40282837 91.84276413 -102.41124756 90.6764798 -102.41992188 89.47485352 C-102.42839142 88.82881165 -102.43686096 88.18276978 -102.44558716 87.51715088 C-102.46893243 85.38753421 -102.46998001 83.25864105 -102.46875 81.12890625 C-102.47585309 79.64444186 -102.4835523 78.15998021 -102.49182129 76.67552185 C-102.50526032 73.56607428 -102.50683757 70.45688058 -102.50097656 67.34741211 C-102.4950805 63.36797403 -102.52566874 59.38975603 -102.56609344 55.41055393 C-102.59197769 52.34524505 -102.5948473 49.28022969 -102.59120178 46.21482658 C-102.59289236 44.74802521 -102.6025291 43.2812102 -102.62034607 41.81451607 C-102.64255394 39.760367 -102.63283018 37.70868363 -102.61523438 35.65454102 C-102.61728882 34.48746109 -102.61934326 33.32038116 -102.62145996 32.11793518 C-102 29 -102 29 -100.05354309 26.11956787 C-97.04000215 24.02776685 -96.17809658 23.65138836 -92.7162323 23.39872742 C-90.98687086 23.38428539 -89.25714449 23.39741151 -87.52807617 23.43237305 C-86.58124969 23.43164291 -85.63442322 23.43091278 -84.65890503 23.43016052 C-81.53633896 23.43363771 -78.4152735 23.47250604 -75.29296875 23.51171875 C-73.12535924 23.52104638 -70.95773918 23.52816273 -68.79011536 23.53315735 C-63.09016725 23.55223087 -57.39085809 23.60133555 -51.69116211 23.65667725 C-45.87297204 23.70786159 -40.05467854 23.7306697 -34.23632812 23.75585938 C-22.82389312 23.80945348 -11.4120997 23.89739308 0 24 C0 16.08 0 8.16 0 0 Z " transform="translate(173,50)" style="fill: #0474B2;"/><path d="M0 0 C74.25 0 148.5 0 225 0 C225 74.25 225 148.5 225 225 C150.75 225 76.5 225 0 225 C0 150.75 0 76.5 0 0 Z M48.59375 21.3125 C36.26826744 30.27698333 25.91470281 40.92939312 18 54 C17.61714844 54.6300293 17.23429687 55.26005859 16.83984375 55.90917969 C5.13162986 75.58709362 1.47700035 95.27351735 1.72265625 117.96484375 C2.27550771 138.3378326 9.01319821 156.89125793 19.72753906 174.09082031 C23.31941033 179.48000553 27.61414021 184.253029 32 189 C32.65484375 189.73605469 33.3096875 190.47210938 33.984375 191.23046875 C46.92844673 205.08726349 65.03464789 214.6538188 83.0234375 220.02734375 C101.4752997 224.74234506 123.68590853 225.82156075 142 220 C159.88439522 214.1512517 175.17743759 205.77105352 189 193 C190.10408203 192.01773438 190.10408203 192.01773438 191.23046875 191.015625 C204.99336687 178.15926508 214.69578024 159.88164996 220 142 C220.3196875 140.93523437 220.639375 139.87046875 220.96875 138.7734375 C225.68341745 119.7838047 224.73003653 97.60004138 218.74609375 79.01171875 C212.00473927 59.27272995 200.7706985 41.77095575 185 28 C169.41656184 15.34761604 150.85975266 5.58938816 130.87109375 2.50390625 C101.53647211 -1.07996155 72.99114976 4.33055121 48.59375 21.3125 Z " transform="translate(0,0)" style="fill: #FDFEFE;"/><path d="M0 0 C1.05411575 -0.00029205 2.10823151 -0.00058411 3.19429016 -0.00088501 C6.67347486 0.00050671 10.15244458 0.01606077 13.6315918 0.03173828 C16.04583113 0.03546896 18.46007197 0.03831568 20.87431335 0.04031372 C27.22502837 0.0479458 33.57565173 0.06759075 39.92633057 0.08972168 C46.40814982 0.1101892 52.88998391 0.11931738 59.37182617 0.12939453 C72.08736768 0.15083696 84.80281715 0.18601575 97.51831055 0.22705078 C97.51831055 8.47705078 97.51831055 16.72705078 97.51831055 25.22705078 C94.60083984 25.23639648 91.68336914 25.24574219 88.67749023 25.25537109 C79.04615481 25.28911412 69.41503427 25.34464806 59.7838707 25.41095352 C53.94354872 25.45048959 48.10337891 25.48264805 42.26293945 25.49804688 C36.62824969 25.51317299 30.9939781 25.5475467 25.35947418 25.5953598 C23.20809816 25.61021537 21.05666244 25.61809418 18.90523529 25.61893463 C15.89527114 25.62129345 12.88647286 25.64828596 9.87670898 25.68115234 C8.98406845 25.67612198 8.09142792 25.67109161 7.17173767 25.66590881 C3.41866446 25.72945707 1.17634968 25.80863342 -2.03622437 27.85136414 C-3.94747343 30.99258761 -3.97645638 33.111925 -3.9675293 36.78393555 C-3.97132599 37.43319 -3.97512268 38.08244446 -3.97903442 38.75137329 C-3.98642565 40.89089748 -3.96508259 43.02905422 -3.94262695 45.16845703 C-3.94024179 46.65770814 -3.93933736 48.14696228 -3.93984985 49.63621521 C-3.93672447 52.75416965 -3.92017858 55.87166339 -3.89331055 58.98950195 C-3.85930126 62.98671368 -3.85168294 66.98342015 -3.85320091 70.98075962 C-3.85265722 74.0545484 -3.84169067 77.12822666 -3.82719803 80.20197868 C-3.8208331 81.67597556 -3.81689184 83.14998495 -3.81541061 84.62399483 C-3.81107589 86.68273404 -3.79357308 88.74093661 -3.7722168 90.79956055 C-3.7645932 91.9710817 -3.7569696 93.14260284 -3.74911499 94.34962463 C-3.69324419 97.42465054 -3.69324419 97.42465054 -1.48168945 100.22705078 C31.18831055 100.55705078 63.85831055 100.88705078 97.51831055 101.22705078 C97.51831055 109.80705078 97.51831055 118.38705078 97.51831055 127.22705078 C83.57503551 127.31748312 69.63195582 127.39084295 55.68845367 127.43429947 C49.21365955 127.45515825 42.73907679 127.48344543 36.2644043 127.52880859 C30.01391019 127.57232618 23.76361916 127.59620074 17.51298523 127.60655975 C15.13039453 127.61394041 12.74781472 127.62835311 10.36531067 127.64997101 C7.02348972 127.67908258 3.68250388 127.6830034 0.34057617 127.68115234 C-0.64054138 127.69553345 -1.62165894 127.70991455 -2.63250732 127.72473145 C-8.11380631 127.69196105 -12.04390044 126.97387919 -16.84360504 124.26919174 C-22.35523119 120.76272325 -25.61329926 116.90741858 -28.57582092 111.07182312 C-29.78862201 107.26316561 -29.78479286 103.60445051 -29.78808594 99.64819336 C-29.79640945 98.79545837 -29.80473297 97.94272339 -29.81330872 97.06414795 C-29.83736782 94.24991256 -29.84617706 91.43590931 -29.8527832 88.62158203 C-29.86175461 86.65728183 -29.87087655 84.69298231 -29.88014221 82.72868347 C-29.89662505 78.61052798 -29.9043307 74.4924537 -29.90722656 70.37426758 C-29.912601 65.11644231 -29.95024546 59.85938872 -29.99597073 54.60178089 C-30.02582841 50.54293588 -30.03295206 46.48427446 -30.03395271 42.42532921 C-30.03813988 40.48817102 -30.05051333 38.55101152 -30.07147026 36.61396217 C-30.25322912 18.35655071 -30.25322912 18.35655071 -25.77857971 10.93998718 C-24.04839127 8.65474929 -22.32813832 6.87947956 -19.98168945 5.22705078 C-19.24950195 4.69080078 -18.51731445 4.15455078 -17.76293945 3.60205078 C-11.80113567 0.0086348 -6.81798584 -0.04942526 0 0 Z " transform="translate(75.481689453125,48.77294921875)" style="fill: #FCFDFE;"/><path d="M0 0 C16.83 0 33.66 0 51 0 C51 8.25 51 16.5 51 25 C34.17 25 17.34 25 0 25 C0 16.75 0 8.5 0 0 Z " transform="translate(97,100)" style="fill: #FCFDFE;"/></svg>