<svg id="svg" version="1.1" xmlns="http://www.w3.org/2000/svg" style="display: block;" viewBox="0 0 680 200"><path d="M0 0 C224.4 0 448.8 0 680 0 C680 66 680 132 680 200 C455.6 200 231.2 200 0 200 C0 134 0 68 0 0 Z " transform="translate(0,0)" style="fill: #F33B3C;"/><path d="M0 0 C48.84 0 97.68 0 148 0 C148 48.84 148 97.68 148 148 C99.16 148 50.32 148 0 148 C0 99.16 0 50.32 0 0 Z " transform="translate(19,25)" style="fill: #F33C3D;"/><path d="M0 0 C224.4 0 448.8 0 680 0 C680 66 680 132 680 200 C455.6 200 231.2 200 0 200 C0 134 0 68 0 0 Z M9 12 C9 70.08 9 128.16 9 188 C227.79 188 446.58 188 672 188 C672 129.92 672 71.84 672 12 C453.21 12 234.42 12 9 12 Z " transform="translate(0,0)" style="fill: none;"/><path d="M0 0 C1.06705673 -0.00137466 2.13411346 -0.00274933 3.23350525 -0.00416565 C4.97383026 0.00122726 4.97383026 0.00122726 6.74931335 0.00672913 C7.97899338 0.0065831 9.2086734 0.00643707 10.47561646 0.00628662 C13.83887367 0.00686312 17.20206919 0.01187182 20.56531549 0.01886058 C24.08336724 0.02511996 27.60141985 0.02569996 31.11947632 0.02688599 C37.77751956 0.02999168 44.43554634 0.0381948 51.09358233 0.04823548 C58.67517206 0.05942027 66.25676259 0.06491303 73.83835852 0.06993091 C89.43067688 0.08037805 105.02297257 0.09871406 120.61528015 0.12025452 C120.61528015 8.37025452 120.61528015 16.62025452 120.61528015 25.12025452 C75.73528015 25.12025452 30.85528015 25.12025452 -15.38471985 25.12025452 C-15.38471985 37.00025452 -15.38471985 48.88025452 -15.38471985 61.12025452 C16.95528015 61.12025452 49.29528015 61.12025452 82.61528015 61.12025452 C82.61528015 69.70025452 82.61528015 78.28025452 82.61528015 87.12025452 C50.27528015 87.12025452 17.93528015 87.12025452 -15.38471985 87.12025452 C-15.38471985 95.04025452 -15.38471985 102.96025452 -15.38471985 111.12025452 C-27.59471985 111.12025452 -39.80471985 111.12025452 -52.38471985 111.12025452 C-52.44790742 103.13755857 -52.50797945 95.15578653 -52.5399704 87.17305756 C-52.55570831 83.45441817 -52.576682 79.73598925 -52.61103821 76.01747131 C-52.64401307 72.42533518 -52.66165165 68.8334011 -52.66935158 65.24112511 C-52.67746388 63.22683413 -52.70081973 61.21262264 -52.72460938 59.19845581 C-52.7278009 41.44696466 -47.96516773 27.65250527 -35.4511261 14.92494202 C-25.89168281 5.80213025 -13.27535553 -0.01323565 0 0 Z " transform="translate(540.3847198486328,43.87974548339844)" style="fill: #FEFCFC;"/><path d="M0 0 C0.92790344 -0.00029205 1.85580688 -0.00058411 2.81182861 -0.00088501 C5.84722588 0.00049679 8.88237078 0.0160034 11.91772461 0.03173828 C14.03478359 0.0354725 16.15184431 0.03831754 18.26890564 0.04031372 C23.81729985 0.04791794 29.36558791 0.06753866 34.91394043 0.08972168 C40.58510909 0.11024951 46.25629506 0.11933023 51.92749023 0.12939453 C63.03757021 0.15078776 74.14754381 0.18594353 85.25756836 0.22705078 C85.25756836 8.47705078 85.25756836 16.72705078 85.25756836 25.22705078 C51.26756836 25.22705078 17.27756836 25.22705078 -17.74243164 25.22705078 C-17.74243164 45.35705078 -17.74243164 65.48705078 -17.74243164 86.22705078 C15.91756836 86.22705078 49.57756836 86.22705078 84.25756836 86.22705078 C84.25756836 94.47705078 84.25756836 102.72705078 84.25756836 111.22705078 C72.20874564 111.29502672 60.16005183 111.34998209 48.11108017 111.3824873 C42.51530541 111.39809394 36.91966949 111.4192403 31.32397461 111.45336914 C25.91637064 111.48614162 20.5088996 111.50394135 15.10120392 111.51168251 C13.04569661 111.51719405 10.99019597 111.52795613 8.93474579 111.54424095 C-10.91930388 111.69517848 -27.43557342 109.1673884 -42.45727539 94.80517578 C-53.15239489 82.73888712 -58.14812006 68.599585 -57.94946289 52.65283203 C-57.08359324 38.32513994 -50.3931961 23.89377722 -39.74243164 14.22705078 C-27.92702592 4.51872575 -15.18565669 -0.12756777 0 0 Z " transform="translate(254.742431640625,43.77294921875)" style="fill: #FEFDFD;"/><path d="M0 0 C12.21 0 24.42 0 37 0 C37 36.63 37 73.26 37 111 C24.79 111 12.58 111 0 111 C0 74.37 0 37.74 0 0 Z " transform="translate(396,44)" style="fill: #FEFDFD;"/><path d="M0 0 C48.84 0 97.68 0 148 0 C148 48.84 148 97.68 148 148 C99.16 148 50.32 148 0 148 C0 99.16 0 50.32 0 0 Z M3 3 C3 49.53 3 96.06 3 144 C49.86 144 96.72 144 145 144 C145 97.47 145 50.94 145 3 C98.14 3 51.28 3 3 3 Z " transform="translate(19,25)" style="fill: #FEF3F3;"/><path d="M0 0 C5.94 0 11.88 0 18 0 C18 8.91 18 17.82 18 27 C15.69 27 13.38 27 11 27 C11.11358476 29.95918198 11.24033086 32.91676783 11.375 35.875 C11.4059375 36.71675781 11.436875 37.55851562 11.46875 38.42578125 C11.50742188 39.23144531 11.54609375 40.03710938 11.5859375 40.8671875 C11.6173584 41.61081543 11.6487793 42.35444336 11.68115234 43.12060547 C11.85419551 45.24010974 11.85419551 45.24010974 14 47 C13.625 50.625 13.625 50.625 13 54 C12.34 54 11.68 54 11 54 C11.1095693 57.45900478 11.24026848 60.91689109 11.375 64.375 C11.4059375 65.35984375 11.436875 66.3446875 11.46875 67.359375 C11.52675781 68.77089844 11.52675781 68.77089844 11.5859375 70.2109375 C11.6173584 71.08024902 11.6487793 71.94956055 11.68115234 72.84521484 C11.81229433 75.20961794 11.81229433 75.20961794 14 77 C13.625 80.625 13.625 80.625 13 84 C12.34 84 11.68 84 11 84 C11 99.18 11 114.36 11 130 C9.68 130 8.36 130 7 130 C6.99191315 129.44289841 6.98382629 128.88579681 6.97549438 128.31181335 C6.88952732 122.52054773 6.79002739 116.7296275 6.68261719 110.9387207 C6.64430196 108.77667027 6.6094536 106.61455553 6.578125 104.45239258 C6.53252983 101.34693396 6.47452616 98.24191901 6.4140625 95.13671875 C6.40251129 94.16788254 6.39096008 93.19904633 6.37905884 92.20085144 C6.3492543 90.84979057 6.3492543 90.84979057 6.31884766 89.47143555 C6.30552399 88.67867722 6.29220032 87.88591888 6.2784729 87.06913757 C6.11286418 84.69396892 6.11286418 84.69396892 4 82 C3.75 79.4375 3.75 79.4375 4 77 C4.99 76.01 4.99 76.01 6 75 C6.30983863 72.91835169 6.30983863 72.91835169 6.265625 70.53515625 C6.26820312 69.65279297 6.27078125 68.77042969 6.2734375 67.86132812 C6.26570313 66.93771484 6.25796875 66.01410156 6.25 65.0625 C6.25773437 64.14275391 6.26546875 63.22300781 6.2734375 62.27539062 C6.27085938 61.39173828 6.26828125 60.50808594 6.265625 59.59765625 C6.26336914 58.78820557 6.26111328 57.97875488 6.25878906 57.14477539 C6.1277371 54.70298611 6.1277371 54.70298611 4 52 C3.75 49.4375 3.75 49.4375 4 47 C4.66 46.34 5.32 45.68 6 45 C6.36831081 43.06742145 6.36831081 43.06742145 6.4140625 40.8671875 C6.47207031 39.65869141 6.47207031 39.65869141 6.53125 38.42578125 C6.5621875 37.58402344 6.593125 36.74226563 6.625 35.875 C6.66367188 35.02550781 6.70234375 34.17601562 6.7421875 33.30078125 C6.83656494 31.20088316 6.91937586 29.10047109 7 27 C4.69 27 2.38 27 0 27 C0 18.09 0 9.18 0 0 Z " transform="translate(84,33)" style="fill: #FEF3F3;"/><path d="M0 0 C6.27 0 12.54 0 19 0 C19 8.91 19 17.82 19 27 C16.69 27 14.38 27 12 27 C12 31.95 12 36.9 12 42 C12.66 42 13.32 42 14 42 C15.32684825 47.42801556 15.32684825 47.42801556 14 49.75 C12 51 12 51 8.71850586 51.77832031 C4.54224943 53.15038959 2.61340592 54.72955243 -0.49609375 57.796875 C-0.97450211 58.26812805 -1.45291046 58.7393811 -1.94581604 59.22491455 C-2.94592212 60.21728661 -3.93976541 61.21600708 -4.92749023 62.22070312 C-6.43919431 63.75171595 -7.97809932 65.25100596 -9.52148438 66.75 C-10.49396157 67.72218696 -11.46472735 68.69608953 -12.43359375 69.671875 C-13.74928345 70.98816895 -13.74928345 70.98816895 -15.09155273 72.33105469 C-17.38652988 75.54055835 -17.21647551 77.14759265 -17 81 C-17.66 81.99 -18.32 82.98 -19 84 C-19.99 84 -20.98 84 -22 84 C-22 85.65 -22 87.3 -22 89 C-23.32 89 -24.64 89 -26 89 C-28.54151625 80.89891697 -28.54151625 80.89891697 -28 77 C-26.4446977 74.78983358 -25.28820582 74.09774044 -22.72729492 73.22924805 C-17.56336093 70.90175654 -13.86115217 66.37927975 -9.90600586 62.40698242 C-8.32066105 60.82066605 -6.71522051 59.25687282 -5.10742188 57.69335938 C-4.08724204 56.67838796 -3.06831887 55.66215154 -2.05078125 54.64453125 C-1.12950439 53.73034424 -0.20822754 52.81615723 0.7409668 51.87426758 C3.27530616 48.64971583 4.00711198 45.93770703 5 42 C5.66 41.67 6.32 41.34 7 41 C7.47001033 37.72444392 7.47001033 37.72444392 7.625 33.9375 C7.69976562 32.64714844 7.77453125 31.35679688 7.8515625 30.02734375 C7.90054688 29.02832031 7.94953125 28.02929688 8 27 C5.36 27 2.72 27 0 27 C0 18.09 0 9.18 0 0 Z " transform="translate(132,74)" style="fill: #FEF2F2;"/><path d="M0 0 C6.27 0 12.54 0 19 0 C19 8.91 19 17.82 19 27 C16.69 27 14.38 27 12 27 C12.09348407 30.95141222 12.19956488 34.9022637 12.31738281 38.85302734 C12.37454036 40.85886971 12.42168596 42.86498918 12.46875 44.87109375 C12.50742188 46.12792969 12.54609375 47.38476562 12.5859375 48.6796875 C12.6173584 49.84226074 12.6487793 51.00483398 12.68115234 52.20263672 C12.72157869 55.13656482 12.72157869 55.13656482 15 57 C14.93296875 57.90621094 14.8659375 58.81242187 14.796875 59.74609375 C15.07174836 64.14935355 17.25476223 66.10918032 20.25 69.0625 C21.235775 70.0728547 22.22017026 71.08455756 23.203125 72.09765625 C23.64301758 72.53601807 24.08291016 72.97437988 24.53613281 73.42602539 C25.01920898 73.94543701 25.50228516 74.46484863 26 75 C26.70962891 75.73943848 27.41925781 76.47887695 28.15039062 77.24072266 C30.50207493 80.74900355 30.46204074 82.85510675 30.390625 87.05078125 C30.38496521 87.70958786 30.37930542 88.36839447 30.37347412 89.04716492 C30.35121239 91.13637216 30.3010433 93.22381773 30.25 95.3125 C30.22992144 96.73500114 30.21167304 98.15752937 30.1953125 99.58007812 C30.15138359 103.0539508 30.08243096 106.52680325 30 110 C29.01 110 28.02 110 27 110 C27.0220752 109.20940186 27.04415039 108.41880371 27.06689453 107.60424805 C28.28404942 90.08579188 28.28404942 90.08579188 21.1875 75.0625 C19.48406687 73.67610169 17.75607771 72.31908142 16 71 C15.29875 70.11699219 14.5975 69.23398438 13.875 68.32421875 C11.53540864 65.4241003 9.53918884 64.94378369 6 64 C5 63 5 63 4.8125 60.0625 C5 57 5 57 7 55 C7.37268887 52.08811755 7.37268887 52.08811755 7.4140625 48.6796875 C7.47207031 46.79443359 7.47207031 46.79443359 7.53125 44.87109375 C7.57765625 42.89302734 7.57765625 42.89302734 7.625 40.875 C7.66318029 39.53513082 7.70223206 38.19528617 7.7421875 36.85546875 C7.8367203 33.57045381 7.92227156 30.28544862 8 27 C5.36 27 2.72 27 0 27 C0 18.09 0 9.18 0 0 Z " transform="translate(57,53)" style="fill: #FEF6F6;"/><path d="M0 0 C6.27 0 12.54 0 19 0 C19 8.91 19 17.82 19 27 C16.36 27 13.72 27 11 27 C11.09348407 30.95141222 11.19956488 34.9022637 11.31738281 38.85302734 C11.37454036 40.85886971 11.42168596 42.86498918 11.46875 44.87109375 C11.50742188 46.12792969 11.54609375 47.38476562 11.5859375 48.6796875 C11.63306885 50.42354736 11.63306885 50.42354736 11.68115234 52.20263672 C11.72157869 55.13656482 11.72157869 55.13656482 14 57 C14.125 60.125 14.125 60.125 14 63 C12.865625 63.45375 11.73125 63.9075 10.5625 64.375 C4.75906014 67.25094977 1.04285584 72.06801985 -3 77 C-4.03543945 78.11133301 -4.03543945 78.11133301 -5.09179688 79.24511719 C-7.41905924 82.60499801 -7.53528694 84.55695991 -7.609375 88.61328125 C-7.64160156 89.86044922 -7.67382812 91.10761719 -7.70703125 92.39257812 C-7.72121094 93.68615234 -7.73539062 94.97972656 -7.75 96.3125 C-7.77964844 97.62541016 -7.80929688 98.93832031 -7.83984375 100.29101562 C-7.91045589 103.52740535 -7.96319877 106.76307811 -8 110 C-8.99 110 -9.98 110 -11 110 C-11.225006 105.91142952 -11.38691544 101.82532066 -11.49438477 97.73193359 C-11.53923678 96.34457556 -11.60035186 94.95763288 -11.67895508 93.57177734 C-12.31275325 82.09713075 -12.31275325 82.09713075 -9.06201172 76.90405273 C-6.82386466 74.41351888 -4.52454394 72.19519584 -2 70 C2.07783083 65.88272365 3.43710956 62.85406057 4 57 C4.66 56.34 5.32 55.68 6 55 C6.37268887 52.08811755 6.37268887 52.08811755 6.4140625 48.6796875 C6.45273438 47.42285156 6.49140625 46.16601562 6.53125 44.87109375 C6.5621875 43.55238281 6.593125 42.23367187 6.625 40.875 C6.66318029 39.53513082 6.70223206 38.19528617 6.7421875 36.85546875 C6.8367203 33.57045381 6.92227156 30.28544862 7 27 C4.69 27 2.38 27 0 27 C0 18.09 0 9.18 0 0 Z " transform="translate(110,53)" style="fill: #FEF5F5;"/><path d="M0 0 C6.27 0 12.54 0 19 0 C19 8.91 19 17.82 19 27 C16.36 27 13.72 27 11 27 C11.08702126 29.27155498 11.19519522 31.54230743 11.3125 33.8125 C11.37050781 35.07707031 11.42851563 36.34164062 11.48828125 37.64453125 C12.04405685 41.28889188 12.42399894 41.6784188 15 44 C15.25845703 44.90500244 15.51691406 45.81000488 15.78320312 46.74243164 C17.23951268 50.64121542 19.11225679 52.61426099 22.05078125 55.546875 C22.54660202 56.044151 23.04242279 56.541427 23.55326843 57.05377197 C24.59832174 58.09717336 25.64829639 59.13566647 26.70288086 60.16943359 C28.3095642 61.74711719 29.89670832 63.34267693 31.48242188 64.94140625 C37.48882391 71.06522928 37.48882391 71.06522928 45 75 C45.99 75.99 45.99 75.99 47 77 C46.6875 79.75 46.6875 79.75 46 83 C45.814375 84.11375 45.62875 85.2275 45.4375 86.375 C45.293125 87.24125 45.14875 88.1075 45 89 C43.68 89 42.36 89 41 89 C41 87.35 41 85.7 41 84 C39.68 83.67 38.36 83.34 37 83 C36.90356201 81.19764893 36.90356201 81.19764893 36.80517578 79.35888672 C36.21789274 74.74571563 34.43774658 72.56080558 31.1171875 69.2578125 C30.62469513 68.76336639 30.13220276 68.26892029 29.62478638 67.75949097 C28.58571917 66.72440117 27.53806851 65.6978632 26.48242188 64.6796875 C24.87884985 63.12872355 23.30977217 61.5481784 21.7421875 59.9609375 C16.67713559 54.95462065 13.06954323 51.76395501 6 50 C5.34 49.34 4.68 48.68 4 48 C4.375 44.875 4.375 44.875 5 42 C6.485 41.505 6.485 41.505 8 41 C8 36.38 8 31.76 8 27 C5.36 27 2.72 27 0 27 C0 18.09 0 9.18 0 0 Z " transform="translate(35,74)" style="fill: #FEF4F4;"/></svg>