<svg id="svg" version="1.1" xmlns="http://www.w3.org/2000/svg" style="display: block;" viewBox="0 0 689 160"><path d="M0,0 L689,0 L689,160 L0,160 Z " transform="translate(0,0)" style="fill: none"/><path d="M0,0 L17,2 L29,7 L38,13 L43,17 L52,29 L58,43 L67,70 L73,82 L77,87 L86,93 L92,95 L109,95 L119,90 L122,87 L124,87 L126,83 L133,69 L133,51 L126,37 L123,34 L123,32 L119,30 L112,26 L108,25 L90,25 L81,30 L76,34 L71,40 L68,40 L56,20 L58,16 L68,8 L80,3 L94,0 L106,0 L121,3 L135,10 L145,19 L152,28 L158,42 L159,47 L159,73 L156,83 L151,93 L142,104 L132,112 L121,117 L107,120 L91,120 L79,117 L67,111 L57,103 L50,94 L43,80 L31,45 L25,36 L18,29 L9,25 L5,24 L-5,24 L-16,28 L-24,34 L-30,43 L-33,50 L-33,69 L-29,79 L-22,88 L-12,94 L-5,96 L5,96 L16,92 L24,86 L29,80 L33,82 L44,100 L42,104 L32,112 L20,117 L12,119 L-12,119 L-23,116 L-33,111 L-43,103 L-51,93 L-56,83 L-59,73 L-60,58 L-58,44 L-53,31 L-46,21 L-37,12 L-27,6 L-16,2 Z " transform="translate(514,17)" style="fill: #41A0FC;"/><path d="M0,0 L21,0 L33,3 L47,11 L58,22 L60,26 L59,30 L43,40 L39,39 L32,30 L22,25 L19,24 L3,24 L-7,28 L-13,33 L-20,45 L-22,53 L-22,64 L-19,75 L-14,84 L-6,91 L5,95 L17,95 L27,91 L34,85 L39,77 L40,73 L7,72 L7,51 L65,52 L66,117 L45,117 L44,105 L36,112 L28,116 L20,118 L-3,118 L-15,114 L-26,107 L-34,100 L-41,90 L-46,78 L-47,73 L-47,49 L-43,34 L-36,22 L-30,15 L-18,6 L-5,1 Z " transform="translate(375,18)" style="fill: #0C337D;"/><path d="M0,0 L86,0 L87,20 L86,21 L23,21 L24,28 L24,46 L74,46 L75,66 L74,67 L23,67 L24,93 L86,94 L87,114 L86,115 L0,115 Z " transform="translate(235,20)" style="fill: #072E7B;"/><path d="M0,0 L86,0 L87,20 L86,21 L23,21 L24,28 L24,46 L74,46 L75,66 L74,67 L23,67 L24,93 L86,94 L87,114 L86,115 L0,115 Z " transform="translate(38,20)" style="fill: #072E7A;"/><path d="M0,0 L22,0 L23,4 L23,94 L52,94 L82,95 L82,116 L-1,117 L-1,1 Z " transform="translate(141,19)" style="fill: #0C327D;"/></svg>