<svg id="svg" version="1.1" xmlns="http://www.w3.org/2000/svg" style="display: block;" viewBox="0 0 2104 394"><path d="M0 0 C694.32 0 1388.64 0 2104 0 C2104 130.02 2104 260.04 2104 394 C1409.68 394 715.36 394 0 394 C0 263.98 0 133.96 0 0 Z " transform="translate(0,0)" style="fill: #009942;"/><path d="M0 0 C1.0943335 0.49886719 2.18866699 0.99773438 3.31616211 1.51171875 C36.40714449 16.81614675 66.66408419 39.05583948 89 68.125 C89.70914551 69.03620605 89.70914551 69.03620605 90.43261719 69.96582031 C117.89610927 105.53674584 133.49034774 147.77925492 141.625 191.625 C141.81924561 192.64819336 142.01349121 193.67138672 142.21362305 194.72558594 C146.00699284 216.10493442 147.5059784 237.58013722 147.39111328 259.27197266 C147.37493862 262.88872585 147.39113884 266.50437244 147.41015625 270.12109375 C147.40817422 272.5130232 147.40433138 274.90495199 147.3984375 277.296875 C147.40754654 278.84952057 147.40754654 278.84952057 147.4168396 280.43353271 C147.31023588 292.2589396 145.49833312 303.13833506 144 315.125 C37.74 315.125 -68.52 315.125 -178 315.125 C-180.78044944 297.51548689 -182.21220073 280.96689046 -182.1875 263.3125 C-182.18689575 262.50652374 -182.1862915 261.70054749 -182.18566895 260.87014771 C-182.15673551 246.54862644 -181.60498029 232.36671647 -180 218.125 C-179.87641113 217.02494629 -179.75282227 215.92489258 -179.62548828 214.79150391 C-175.49219589 179.61593316 -166.74738336 144.95508665 -151 113.125 C-150.56929199 112.25117676 -150.13858398 111.37735352 -149.69482422 110.47705078 C-143.89360193 98.81816188 -137.64521084 87.67587675 -130 77.125 C-129.59426758 76.56377441 -129.18853516 76.00254883 -128.77050781 75.42431641 C-123.43367501 68.11738394 -117.64890278 61.36465193 -111.4453125 54.78125 C-108.99344995 52.1832847 -108.99344995 52.1832847 -106.90625 49.484375 C-105.17549776 47.34221445 -103.47400135 45.64352029 -101.375 43.875 C-99.15593566 41.98859247 -96.97228836 40.09880266 -94.85546875 38.09765625 C-76.2400754 20.56049693 -53.17126906 8.47004289 -30 -1.875 C-29.30406738 -2.19871582 -28.60813477 -2.52243164 -27.89111328 -2.85595703 C-17.74666369 -7.20285241 -9.60001229 -4.49346428 0 0 Z " transform="translate(235,32.875)" style="fill: #FBFDFE;"/><path d="M0 0 C22.1925 -0.061875 44.385 -0.12375 67.25 -0.1875 C74.2409082 -0.21481201 81.23181641 -0.24212402 88.43457031 -0.27026367 C97.01318359 -0.28381348 97.01318359 -0.28381348 101.03729248 -0.28633118 C103.83017215 -0.28911072 106.62287838 -0.30029105 109.41571045 -0.31672668 C112.99139662 -0.33748672 116.5668349 -0.34344015 120.14257574 -0.33921683 C122.05621072 -0.34051052 123.96981905 -0.35650562 125.88338089 -0.37328625 C139.54847778 -0.32453966 151.25408281 2.5771433 161.5625 11.8125 C178.29513208 29.36564643 178.6253028 53.89869314 178.140625 76.62402344 C177.43615512 93.53619268 172.77273436 111.00320026 160.125 122.875 C150.58621892 130.98367897 141.42362988 133.31530802 129.10766602 133.22705078 C128.03375107 133.22734283 126.95983612 133.22763489 125.8533783 133.22793579 C122.32013743 133.22654762 118.78711007 133.21101036 115.25390625 133.1953125 C112.79768489 133.19158055 110.34146203 133.18873444 107.88523865 133.18673706 C101.43262596 133.17911494 94.98010385 133.15947856 88.52752686 133.1373291 C80.77898277 133.1132353 73.03040832 133.10408293 65.28183746 133.09242249 C53.52116205 133.07305345 41.76068524 133.03472074 30 133 C30 150.49 30 167.98 30 186 C20.1 186 10.2 186 0 186 C0 124.62 0 63.24 0 0 Z " transform="translate(895,112)" style="fill: #FAFDFD;"/><path d="M0 0 C30.90901502 -1.55408455 60.09955116 10.25348928 83.19848633 30.54711914 C99.29747011 45.11308759 113.32712287 65.14725896 120 86 C120 86.66 120 87.32 120 88 C121.65 88 123.3 88 125 88 C125.15637939 87.47067871 125.31275879 86.94135742 125.47387695 86.39599609 C127.43549214 80.1147337 130.10730511 74.42990117 133.1875 68.625 C133.92105713 67.23800903 133.92105713 67.23800903 134.66943359 65.82299805 C141.56826088 52.99361977 150.43491517 42.04971484 161 32 C162.02287109 31.00226563 162.02287109 31.00226563 163.06640625 29.984375 C184.02247802 10.20561064 213.88659383 -0.78841443 242.5703125 -0.10546875 C243.37210938 -0.07066406 244.17390625 -0.03585938 245 0 C245.17398277 6.61803703 244.60184421 12.68952938 243.375 19.1875 C243.1989624 20.13222168 243.0229248 21.07694336 242.84155273 22.05029297 C239.99634987 36.74140019 236.40324816 51.4271575 230 65 C229.32194168 66.50607184 228.64495337 68.01262565 227.96875 69.51953125 C217.86047197 91.76126881 203.08629621 112.91418791 182 126 C181.08863281 126.58265625 180.17726563 127.1653125 179.23828125 127.765625 C162.06694215 138.31144073 144.66491343 142.59346657 124.625 142.375 C123.61335281 142.36802094 123.61335281 142.36802094 122.58126831 142.36090088 C91.65325571 142.11144826 66.17776585 131.47190967 43.75 110.125 C33.52733109 99.33802241 25.95494132 87.05699754 19 74 C18.49557373 73.06075684 18.49557373 73.06075684 17.98095703 72.10253906 C7.26948792 51.59462224 -0.45054791 23.09808964 0 0 Z " transform="translate(95,180)" style="fill: #63B231;"/><path d="M0 0 C1.52279572 -0.002062 1.52279572 -0.002062 3.07635498 -0.00416565 C4.1840625 -0.00057037 5.29177002 0.0030249 6.43304443 0.00672913 C7.60405701 0.0065831 8.77506958 0.00643707 9.98156738 0.00628662 C13.85571133 0.0069838 17.72980731 0.01476714 21.60394287 0.02259827 C24.28865533 0.02501831 26.97336773 0.0259359 29.65808105 0.02688599 C36.00449746 0.02999318 42.35089662 0.03819832 48.69730544 0.04823548 C55.92337682 0.05941561 63.14944903 0.06491186 70.37552691 0.06993091 C85.23813466 0.08038144 100.10072154 0.09871932 114.96331787 0.12025452 C114.96331787 10.35025452 114.96331787 20.58025452 114.96331787 31.12025452 C110.02781982 31.12641785 110.02781982 31.12641785 104.99261475 31.13270569 C94.11200291 31.14991579 83.2316257 31.19443885 72.35115814 31.25234509 C65.75536059 31.28661137 59.15979458 31.31172461 52.56390381 31.31581116 C46.19649295 31.32009471 39.8296044 31.3485636 33.46235657 31.39368629 C31.03517196 31.40665923 28.60792483 31.41096974 26.18070984 31.40640831 C22.77629444 31.40150126 19.37340492 31.42760267 15.96917725 31.46083069 C14.4694487 31.44789223 14.4694487 31.44789223 12.93942261 31.43469238 C6.05150587 31.54712459 2.18609337 32.47670347 -3.03668213 37.12025452 C-5.34668213 41.74025452 -7.65668213 46.36025452 -10.03668213 51.12025452 C31.21331787 51.12025452 72.46331787 51.12025452 114.96331787 51.12025452 C114.96331787 61.02025452 114.96331787 70.92025452 114.96331787 81.12025452 C73.71331787 81.12025452 32.46331787 81.12025452 -10.03668213 81.12025452 C-6.04843721 92.12491625 -6.04843721 92.12491625 1.96331787 99.12025452 C4.88820903 100.00695621 7.53304473 100.25388135 10.58239746 100.2784729 C11.50503891 100.28826172 12.42768036 100.29805054 13.37828064 100.30813599 C14.38313004 100.31389145 15.38797943 100.31964691 16.42327881 100.32557678 C17.48700211 100.33547638 18.5507254 100.34537598 19.64668274 100.35557556 C23.16366345 100.38717019 26.68065768 100.41194006 30.19769287 100.43666077 C32.63578646 100.45723204 35.07387649 100.47822856 37.51196289 100.49963379 C43.93002445 100.55483648 50.34811809 100.60425378 56.76623535 100.65248108 C63.31503151 100.70270921 69.86378104 100.75838844 76.41253662 100.81361389 C89.2627587 100.92117346 102.11302036 101.02211969 114.96331787 101.12025452 C114.96331787 111.68025452 114.96331787 122.24025452 114.96331787 133.12025452 C100.17643629 133.18816412 85.3896526 133.24334788 70.60264969 133.27569103 C63.7356734 133.2911125 56.8688014 133.31211079 50.00189209 133.34657288 C43.36885576 133.37984517 36.73589889 133.39713292 30.10277557 133.40488625 C27.57836965 133.41040821 25.05396931 133.42119102 22.52960968 133.43744469 C18.98036646 133.45937824 15.4315638 133.46221475 11.88226318 133.46083069 C10.85007156 133.47161652 9.81787994 133.48240234 8.75440979 133.49351501 C-4.29463166 133.43883271 -16.38778828 130.17945354 -26.09136963 121.21791077 C-40.72816053 105.43486516 -43.75820815 82.66303533 -43.25543213 61.94447327 C-42.12532558 42.18778909 -38.31546519 23.1396793 -23.35308838 8.90931702 C-16.49751823 3.61445846 -8.69350001 -0.00909362 0 0 Z " transform="translate(656.0366821289063,161.87974548339844)" style="fill: #FAFDFD;"/><path d="M0 0 C1.52279572 -0.002062 1.52279572 -0.002062 3.07635498 -0.00416565 C4.1840625 -0.00057037 5.29177002 0.0030249 6.43304443 0.00672913 C7.60405701 0.0065831 8.77506958 0.00643707 9.98156738 0.00628662 C13.85571133 0.0069838 17.72980731 0.01476714 21.60394287 0.02259827 C24.28865533 0.02501831 26.97336773 0.0259359 29.65808105 0.02688599 C36.00449746 0.02999318 42.35089662 0.03819832 48.69730544 0.04823548 C55.92337682 0.05941561 63.14944903 0.06491186 70.37552691 0.06993091 C85.23813466 0.08038144 100.10072154 0.09871932 114.96331787 0.12025452 C114.96331787 10.35025452 114.96331787 20.58025452 114.96331787 31.12025452 C110.02781982 31.12641785 110.02781982 31.12641785 104.99261475 31.13270569 C94.11200291 31.14991579 83.2316257 31.19443885 72.35115814 31.25234509 C65.75536059 31.28661137 59.15979458 31.31172461 52.56390381 31.31581116 C46.19649295 31.32009471 39.8296044 31.3485636 33.46235657 31.39368629 C31.03517196 31.40665923 28.60792483 31.41096974 26.18070984 31.40640831 C22.77629444 31.40150126 19.37340492 31.42760267 15.96917725 31.46083069 C14.4694487 31.44789223 14.4694487 31.44789223 12.93942261 31.43469238 C6.05150587 31.54712459 2.18609337 32.47670347 -3.03668213 37.12025452 C-5.34668213 41.74025452 -7.65668213 46.36025452 -10.03668213 51.12025452 C31.21331787 51.12025452 72.46331787 51.12025452 114.96331787 51.12025452 C114.96331787 61.02025452 114.96331787 70.92025452 114.96331787 81.12025452 C73.71331787 81.12025452 32.46331787 81.12025452 -10.03668213 81.12025452 C-5.49102527 92.86567217 -5.49102527 92.86567217 3.81582832 99.49419594 C8.05454539 100.729911 12.38016922 100.55895611 16.76385498 100.55262756 C18.36009705 100.56791504 18.36009705 100.56791504 19.98858643 100.58351135 C23.48933207 100.6135908 26.98980383 100.62289984 30.49066162 100.63197327 C32.92447312 100.64882364 35.35827594 100.66697436 37.79206848 100.68637085 C44.18542772 100.7338377 50.57875174 100.76366874 56.972229 100.78981018 C63.5012304 100.81963224 70.03011052 100.86615699 76.559021 100.91127014 C89.36040374 100.9972658 102.16177391 101.06308362 114.96331787 101.12025452 C114.96331787 111.68025452 114.96331787 122.24025452 114.96331787 133.12025452 C100.17643629 133.18816412 85.3896526 133.24334788 70.60264969 133.27569103 C63.7356734 133.2911125 56.8688014 133.31211079 50.00189209 133.34657288 C43.36885576 133.37984517 36.73589889 133.39713292 30.10277557 133.40488625 C27.57836965 133.41040821 25.05396931 133.42119102 22.52960968 133.43744469 C18.98036646 133.45937824 15.4315638 133.46221475 11.88226318 133.46083069 C10.85007156 133.47161652 9.81787994 133.48240234 8.75440979 133.49351501 C-4.4970819 133.43798433 -15.98616034 129.88145126 -26.03668213 121.12025452 C-35.96121203 109.34337229 -40.19022381 96.34280043 -42.03668213 81.12025452 C-42.1475415 80.2578717 -42.25840088 79.39548889 -42.37261963 78.50697327 C-44.93532281 56.23916052 -41.86475215 31.53192196 -27.93511963 13.38197327 C-20.69733588 5.55200721 -10.79476632 -0.0112916 0 0 Z " transform="translate(1375.0366821289063,161.87974548339844)" style="fill: #FAFDFD;"/><path d="M0 0 C1.52279572 -0.002062 1.52279572 -0.002062 3.07635498 -0.00416565 C4.1840625 -0.00057037 5.29177002 0.0030249 6.43304443 0.00672913 C7.60405701 0.0065831 8.77506958 0.00643707 9.98156738 0.00628662 C13.85571133 0.0069838 17.72980731 0.01476714 21.60394287 0.02259827 C24.28865533 0.02501831 26.97336773 0.0259359 29.65808105 0.02688599 C36.00449746 0.02999318 42.35089662 0.03819832 48.69730544 0.04823548 C55.92337682 0.05941561 63.14944903 0.06491186 70.37552691 0.06993091 C85.23813466 0.08038144 100.10072154 0.09871932 114.96331787 0.12025452 C114.96331787 10.35025452 114.96331787 20.58025452 114.96331787 31.12025452 C111.72833496 31.13483704 108.49335205 31.14941956 105.16033936 31.16444397 C94.46734641 31.21479963 83.77449894 31.28139664 73.08164883 31.35596943 C66.5991026 31.40068091 60.11661935 31.4399356 53.63397217 31.46669006 C47.37688917 31.49271486 41.12004837 31.53311213 34.86311531 31.58344078 C32.47697018 31.60011493 30.09078316 31.61162578 27.70458794 31.61786842 C24.36015356 31.62750319 21.01633957 31.65555646 17.67205811 31.68788147 C16.68734528 31.68644638 15.70263245 31.68501129 14.68807983 31.68353271 C7.74711571 31.77829692 2.97420594 32.82624456 -2.66168213 37.12025452 C-6.02278965 41.11864121 -6.02278965 41.11864121 -10.03668213 51.12025452 C31.21331787 51.12025452 72.46331787 51.12025452 114.96331787 51.12025452 C114.96331787 61.02025452 114.96331787 70.92025452 114.96331787 81.12025452 C73.71331787 81.12025452 32.46331787 81.12025452 -10.03668213 81.12025452 C-4.63563188 94.19153218 -4.63563188 94.19153218 5.96331787 100.12025452 C7.46050251 100.22047838 8.96165616 100.26638613 10.46214294 100.2784729 C11.84404312 100.29315613 11.84404312 100.29315613 13.25386047 100.30813599 C14.26230515 100.31389145 15.27074982 100.31964691 16.30975342 100.32557678 C17.37333069 100.33547638 18.43690796 100.34537598 19.53271484 100.35557556 C23.05513264 100.38721276 26.57756393 100.41195686 30.10003662 100.43666077 C32.53955947 100.45722837 34.97907875 100.47822479 37.41859436 100.49963379 C43.84489038 100.55487444 50.27121867 100.60427497 56.6975708 100.65248108 C63.25297931 100.70268152 69.80834085 100.75837519 76.3637085 100.81361389 C89.23020636 100.92121987 102.09674403 101.02215198 114.96331787 101.12025452 C114.96331787 111.68025452 114.96331787 122.24025452 114.96331787 133.12025452 C100.02878673 133.18813717 85.09433531 133.24333237 70.15968609 133.27569103 C63.22430053 133.29111922 56.28901808 133.3121306 49.35369873 133.34657288 C42.65581158 133.37981998 35.95805346 133.39712792 29.26008034 133.40488625 C26.7097283 133.41041246 24.15938186 133.42120368 21.60907555 133.43744469 C18.0261018 133.45934641 14.44356501 133.46221606 10.86053467 133.46083069 C9.81539703 133.47161652 8.7702594 133.48240234 7.69345093 133.49351501 C-5.45093626 133.43882436 -16.2861974 129.46571179 -26.16168213 120.74525452 C-42.07541957 103.7362396 -42.9954182 79.68226446 -42.41168213 57.74525452 C-41.74997409 40.83861417 -37.55205859 23.78556395 -25.78668213 10.99525452 C-18.66097499 4.52635168 -9.69483067 -0.01014104 0 0 Z " transform="translate(1922.0366821289063,161.87974548339844)" style="fill: #FAFDFD;"/><path d="M0 0 C9.9 0 19.8 0 30 0 C30.01458252 2.69494629 30.02916504 5.38989258 30.04418945 8.16650391 C30.09454964 17.07536974 30.16114737 25.98406105 30.23571491 34.89275551 C30.28042269 40.29356008 30.31967807 45.69428914 30.34643555 51.09521484 C30.37246424 56.30841867 30.41286393 61.52133199 30.46318626 66.73435593 C30.47985785 68.72219603 30.4913703 70.71008639 30.49761391 72.6979866 C30.5072517 75.48467641 30.53530741 78.27062252 30.56762695 81.05712891 C30.56547432 82.28712112 30.56547432 82.28712112 30.5632782 83.54196167 C30.64292995 88.40513287 31.28328858 91.80164344 34 96 C37.97370266 98.6491351 41.44570373 98.30744445 46.0612793 98.31884766 C47.00329854 98.32900091 47.94531778 98.33915417 48.91588306 98.3496151 C51.96865767 98.38027902 55.02133885 98.39741564 58.07421875 98.4140625 C59.95756844 98.43099354 61.8409104 98.44880978 63.72424316 98.4675293 C70.71190652 98.53075837 77.69971659 98.57683279 84.6875 98.625 C100.300625 98.74875 115.91375 98.8725 132 99 C132 66.33 132 33.66 132 0 C141.9 0 151.8 0 162 0 C162 43.89 162 87.78 162 133 C140.281875 133.0825 118.56375 133.165 96.1875 133.25 C89.34410889 133.28641602 82.50071777 133.32283203 75.44995117 133.36035156 C67.05725098 133.37841797 67.05725098 133.37841797 63.12129211 133.3817749 C60.38730851 133.38789533 57.65407854 133.40039942 54.92024231 133.42230225 C50.76594423 133.45513906 46.61219127 133.4556194 42.45776367 133.45410156 C40.64814415 133.47569021 40.64814415 133.47569021 38.80196667 133.497715 C29.41941431 133.45204122 20.19512764 131.58213097 12.625 125.66796875 C2.46338643 115.23765866 -0.16974708 102.31533957 -0.11352539 88.32275391 C-0.11367142 87.36602783 -0.11381744 86.40930176 -0.1139679 85.42358398 C-0.11327357 82.27455342 -0.10550369 79.12558268 -0.09765625 75.9765625 C-0.09579036 73.78795402 -0.09436727 71.59934513 -0.09336853 69.41073608 C-0.08955679 63.6601241 -0.07973798 57.90953752 -0.06866455 52.15893555 C-0.05842154 46.28695011 -0.05386472 40.41496055 -0.04882812 34.54296875 C-0.0381145 23.0286329 -0.02052858 11.51432254 0 0 Z " transform="translate(1517,162)" style="fill: #FAFDFD;"/><path d="M0 0 C10.89 0 21.78 0 33 0 C33.05607422 7.15429688 33.05607422 7.15429688 33.11328125 14.453125 C33.1436021 17.4974301 33.17477666 20.54167962 33.20898438 23.5859375 C33.26305064 28.40459179 33.31416862 33.22313617 33.34643555 38.04199219 C33.37268619 41.93256354 33.41323687 45.82275995 33.46318626 49.71309662 C33.47970945 51.18798869 33.49131335 52.6629454 33.49761391 54.13791656 C33.57030937 72.37695272 33.57030937 72.37695272 42 88 C47.80551268 92.05324222 52.17265838 92.58373851 59.15795898 92.54589844 C60.15384537 92.55623611 61.14973175 92.56657379 62.17579651 92.57722473 C65.44939516 92.60659207 68.72237387 92.60815066 71.99609375 92.609375 C74.27296626 92.62436069 76.54982791 92.64108865 78.82667542 92.65948486 C84.80578111 92.70312658 90.78474017 92.72315062 96.76397705 92.73822021 C102.87073424 92.75780259 108.97733334 92.79977142 115.08398438 92.83984375 C127.05596754 92.91511178 139.02783624 92.96335407 151 93 C151 106.53 151 120.06 151 134 C137.14307383 134.06795515 123.28625954 134.12291951 109.42920399 134.15543652 C102.99383635 134.17104821 96.55858928 134.19220412 90.12329102 134.22631836 C83.90520236 134.25907239 77.68722921 134.27688678 71.4690609 134.28463173 C69.10457226 134.29014652 66.74008946 134.30091509 64.37565041 134.31719017 C30.23187594 134.54272329 30.23187594 134.54272329 16.25 121.8125 C1.2240776 105.6225977 -0.32544962 82.18086984 -0.1953125 61.328125 C-0.19157421 59.55165772 -0.1887311 57.77518836 -0.18673706 55.99871826 C-0.17916482 51.36277396 -0.15957274 46.72695847 -0.1373291 42.09106445 C-0.11673123 37.34458152 -0.10770577 32.59807741 -0.09765625 27.8515625 C-0.07631967 18.56764313 -0.04119115 9.28385252 0 0 Z " transform="translate(434,161)" style="fill: #F8FCFC;"/><path d="M0 0 C28.648125 -0.0928125 28.648125 -0.0928125 57.875 -0.1875 C63.89218262 -0.21481201 69.90936523 -0.24212402 76.10888672 -0.27026367 C83.49047852 -0.28381348 83.49047852 -0.28381348 86.95266724 -0.28633118 C89.35641142 -0.29091988 91.76014896 -0.30143357 94.16384888 -0.31672668 C97.81752409 -0.33879849 101.47077948 -0.34171423 105.12451172 -0.34057617 C106.7146877 -0.35676766 106.7146877 -0.35676766 108.33698845 -0.37328625 C119.37575895 -0.3274932 128.0325496 2.15489049 136 10 C138.43243117 12.82248694 140.27658426 15.69984221 142 19 C142.41378906 19.79148438 142.82757812 20.58296875 143.25390625 21.3984375 C147.71121765 31.9903761 146.24955057 43.7702243 146 55 C136.1 55 126.2 55 116 55 C115.505 49.06 115.505 49.06 115 43 C113.49258817 38.53056894 113.49258817 38.53056894 109.86213684 35.87149048 C106.36213945 34.80577819 103.07931513 34.69249344 99.45581055 34.68115234 C98.70188176 34.67099909 97.94795298 34.66084583 97.17117786 34.6503849 C94.74302937 34.61987339 92.31499739 34.60262858 89.88671875 34.5859375 C88.38268028 34.56899316 86.87865139 34.55117544 85.37463379 34.5324707 C79.81236573 34.46940291 74.24991661 34.42321683 68.6875 34.375 C56.250625 34.25125 43.81375 34.1275 31 34 C31 67 31 100 31 134 C20.77 134 10.54 134 0 134 C0 89.78 0 45.56 0 0 Z " transform="translate(1708,161)" style="fill: #F8FCFB;"/><path d="M0 0 C18.748125 -0.061875 37.49625 -0.12375 56.8125 -0.1875 C62.71616455 -0.21481201 68.6198291 -0.24212402 74.70239258 -0.27026367 C81.95251465 -0.28381348 81.95251465 -0.28381348 85.35453796 -0.28633118 C87.71323854 -0.29091568 90.0719324 -0.30142051 92.43058777 -0.31672668 C96.01870806 -0.33883247 99.60640143 -0.34171311 103.19458008 -0.34057617 C104.75125381 -0.35676766 104.75125381 -0.35676766 106.3393755 -0.37328625 C116.82496431 -0.3291043 126.30069026 1.49602158 134 9 C143.74236838 19.76169062 146.37934467 30.89235097 146.125 45.0625 C146.08375 48.341875 146.0425 51.62125 146 55 C135.77 55 125.54 55 115 55 C114.67 50.38 114.34 45.76 114 41 C110.72171131 36.18624808 110.72171131 36.18624808 108 35 C105.52923612 34.87790193 103.08486276 34.81439268 100.61279297 34.79467773 C99.45270564 34.77962865 99.45270564 34.77962865 98.26918221 34.76427555 C95.76021467 34.73283783 93.25123136 34.70809773 90.7421875 34.68359375 C89.19538857 34.66519517 87.64859479 34.64635875 86.10180664 34.6270752 C80.35959869 34.55857037 74.617292 34.49855422 68.875 34.4375 C56.04625 34.293125 43.2175 34.14875 30 34 C30 67 30 100 30 134 C20.1 134 10.2 134 0 134 C0 89.78 0 45.56 0 0 Z " transform="translate(1101,161)" style="fill: #FAFDFD;"/><path d="M0 0 C24.635722 -0.16043524 24.635722 -0.16043524 35.15625 -0.1953125 C42.32824577 -0.21920169 49.5000368 -0.24742941 56.671875 -0.30175781 C62.45553325 -0.34529505 68.23897186 -0.36915404 74.02278137 -0.37950897 C76.22674516 -0.38688613 78.43069725 -0.40129202 80.63456726 -0.42292023 C83.72734328 -0.45205828 86.81921765 -0.45595157 89.91210938 -0.45410156 C91.27157684 -0.47567322 91.27157684 -0.47567322 92.6585083 -0.49768066 C98.60196953 -0.45934119 103.01258496 0.69038796 108 4 C109.76953125 5.859375 109.76953125 5.859375 110.8125 7.75 C111.34810547 8.67039063 111.34810547 8.67039063 111.89453125 9.609375 C115.4109891 17.21387043 116.47395083 22.95115485 116.375 31.3125 C116.38660156 32.28123047 116.39820313 33.24996094 116.41015625 34.24804688 C116.37339014 43.43344739 115.04039515 52.75152582 109 60 C104.52783391 64.42394866 101.0046227 66.12817846 94.76055908 66.12025452 C93.50280922 66.12231651 93.50280922 66.12231651 92.21965027 66.12442017 C91.30830826 66.12082489 90.39696625 66.11722961 89.45800781 66.11352539 C88.00872643 66.11374443 88.00872643 66.11374443 86.53016663 66.1139679 C83.33779655 66.11327144 80.14548488 66.1054915 76.953125 66.09765625 C74.73923779 66.09579112 72.52535017 66.09436767 70.3114624 66.09336853 C64.48519755 66.08955082 58.65895764 66.07972687 52.83270264 66.06866455 C45.84178686 66.05663568 38.85086274 66.05204464 31.85993958 66.04621124 C21.23994237 66.03651475 10.61999989 66.01735294 0 66 C0 44.22 0 22.44 0 0 Z " transform="translate(925,146)" style="fill: #029943;"/><path d="M0 0 C4 0 4 0 5.65649414 1.55029297 C6.46268188 2.63528076 6.46268188 2.63528076 7.28515625 3.7421875 C7.89294922 4.55220215 8.50074219 5.3622168 9.12695312 6.19677734 C9.76568359 7.08059082 10.40441406 7.9644043 11.0625 8.875 C11.72572266 9.77814941 12.38894531 10.68129883 13.07226562 11.61181641 C24.89504111 27.92371229 35.92456924 45.33589388 41 65 C41.22558594 65.83917969 41.45117188 66.67835938 41.68359375 67.54296875 C44.87418543 81.03147015 43.52013452 93.92844258 36.4296875 105.84375 C29.94399521 115.62544985 21.03089788 121.98235668 10 126 C-0.57033265 127.79249839 -10.19670798 126.24321258 -19 120 C-29.77314993 111.99279368 -36.52755817 102.43049062 -39 89 C-42.00327984 60.58870631 -26.9754929 36.20661688 -11 14 C-10.46068848 13.24879883 -9.92137695 12.49759766 -9.36572266 11.72363281 C-7.89064899 9.69396826 -6.39232838 7.68571036 -4.875 5.6875 C-4.43808838 5.1004126 -4.00117676 4.5133252 -3.55102539 3.90844727 C-2.3046875 2.32421875 -2.3046875 2.32421875 0 0 Z " transform="translate(216,85)" style="fill: #0092D4;"/><path d="M0 0 C10.23 0 20.46 0 31 0 C31 44.22 31 88.44 31 134 C20.77 134 10.54 134 0 134 C0 89.78 0 45.56 0 0 Z " transform="translate(1272,161)" style="fill: #F7FBFA;"/><path d="M0 0 C35.97 0 71.94 0 109 0 C109 6.27 109 12.54 109 19 C73.03 19 37.06 19 0 19 C0 12.73 0 6.46 0 0 Z " transform="translate(1926,117)" style="fill: #F6FBFA;"/><path d="M0 0 C10.23 0 20.46 0 31 0 C31 10.89 31 21.78 31 33 C20.77 33 10.54 33 0 33 C0 22.11 0 11.22 0 0 Z " transform="translate(1272,116)" style="fill: #F2F9F5;"/></svg>