<?xml version="1.0" encoding="utf-8"?>
<!-- Generator: Adobe Illustrator 26.5.0, SVG Export Plug-In . SVG Version: 6.00 Build 0)  -->
<svg version="1.1" id="a" xmlns="http://www.w3.org/2000/svg" xmlns:xlink="http://www.w3.org/1999/xlink" x="0px" y="0px"
	 viewBox="0 0 1299 364.3" style="enable-background:new 0 0 1299 364.3;" xml:space="preserve">
<style type="text/css">
	.st0{fill:#F86B00;}
</style>
<g>
	<rect x="71.8" y="138.9" class="st0" width="32" height="157.9"/>
	<path class="st0" d="M239.9,127.9c-4.5-36.9-32.5-66.5-69-73.2c-46-8.4-90.1,22.2-98.5,68.3h32.9c0-0.2,0.1-0.3,0.1-0.5
		c8.6-27.8,38.1-43.4,66-34.7c27.8,8.6,43.4,38.1,34.7,66l29,5.9c24.8,5,42.6,26.8,42.6,52.1c0,29.3-23.8,53.1-53.1,53.1H119.8v32
		h104.8c41.1,0,76.4-29.4,83.8-69.9C316.8,180.7,286.2,136.3,239.9,127.9z"/>
	<path class="st0" d="M232,175.2L232,175.2l-33.1-6.7c-1.1,1.6-2.3,3.1-3.6,4.6c-19.3,21.8-52.6,23.8-74.4,4.5v37.7
		C162.7,234.2,211.9,216.4,232,175.2z"/>
</g>
<path d="M388.3,158.2v33.9h-22.2V93.7h34.7c24.8,0,37.2,10.4,37.2,31.3c0,9.9-3.6,17.9-10.7,24s-16.6,9.2-28.5,9.2L388.3,158.2z
	 M388.3,110.7v30.7h8.7c11.8,0,17.7-5.2,17.7-15.5c0-10.1-5.9-15.2-17.7-15.2C397,110.7,388.3,110.7,388.3,110.7z"/>
<path d="M505.3,192.1h-20.5V182h-0.3c-4.7,7.9-11.7,11.8-20.9,11.8c-6.8,0-12.2-1.9-16.1-5.8s-5.9-9-5.9-15.5
	c0-13.6,8.1-21.5,24.2-23.6l19.1-2.5c0-7.7-4.2-11.5-12.5-11.5c-8.5,0.1-16.9,2.7-23.9,7.5V126c4-1.9,8.1-3.3,12.4-4.1
	c4.7-1.1,9.5-1.7,14.3-1.8c20,0,30.1,10,30.1,30L505.3,192.1L505.3,192.1z M484.9,163.5v-4.7l-12.8,1.6c-7,0.9-10.6,4.1-10.6,9.6
	c-0.1,2.3,0.9,4.5,2.6,6.1c1.9,1.7,4.5,2.5,7,2.4c3.8,0.1,7.5-1.4,10-4.2C483.7,171.3,485.1,167.5,484.9,163.5L484.9,163.5z"/>
<path d="M568.4,141.4c-2.8-1.5-6-2.2-9.1-2.1c-4.3-0.2-8.4,1.8-11.1,5.2c-2.7,3.5-4,8.2-4,14.1v33.6h-21.7v-70.3h21.7v13h0.3
	c3.4-9.5,9.6-14.3,18.5-14.3c1.8-0.1,3.6,0.2,5.4,0.8L568.4,141.4L568.4,141.4z"/>
<path d="M625,191.3c-3.2,1.7-8,2.6-14.5,2.5c-15.3,0-22.9-7.9-22.9-23.8v-32.2h-11.4v-16h11.4v-15.2l21.6-6.2v21.4H625v16h-15.8
	v28.4c0,7.3,2.9,11,8.7,11c2.5-0.1,4.9-0.8,7.1-2V191.3z"/>
<path d="M695.7,192.1h-20.5V182h-0.3c-4.7,7.9-11.7,11.8-20.9,11.8c-6.8,0-12.2-1.9-16.1-5.8c-3.9-3.9-5.9-9-5.9-15.5
	c0-13.6,8.1-21.5,24.2-23.6l19.1-2.5c0-7.7-4.2-11.5-12.5-11.5c-8.5,0.1-16.9,2.7-23.9,7.5V126c4-1.9,8.1-3.3,12.4-4.1
	c4.7-1.1,9.5-1.7,14.3-1.8c20,0,30.1,10,30.1,30L695.7,192.1L695.7,192.1z M675.3,163.5v-4.7l-12.8,1.6c-7,0.9-10.6,4.1-10.6,9.6
	c-0.1,2.3,0.9,4.5,2.6,6.1c1.9,1.7,4.5,2.5,7,2.4c3.8,0.1,7.5-1.4,10-4.2C674.2,171.3,675.5,167.5,675.3,163.5L675.3,163.5z"/>
<path d="M781.8,184.1c0,13.1-3.8,23.2-11.3,30.3s-18.5,10.7-32.8,10.7c-9.5,0-17-1.3-22.5-4v-18.3c6.6,4,14.2,6.2,21.9,6.3
	c7.3,0,13-1.9,17-5.8s6-9.1,6-15.8V182h-0.3c-5,7.9-12.3,11.8-21.9,11.8c-9,0-16.1-3.2-21.3-9.5c-5.3-6.3-7.9-14.8-7.9-25.4
	c0-11.9,2.9-21.4,8.8-28.4s13.6-10.5,23.1-10.5c8.6,0,15,3.3,19.2,9.9h0.3v-8.2h21.7L781.8,184.1L781.8,184.1z M760.4,158.3v-5.6
	c0.1-4.1-1.3-8.2-4-11.4c-2.5-3.1-6.3-4.8-10.3-4.7c-4.5-0.2-8.8,2-11.3,5.6c-2.7,3.8-4.1,9-4.1,15.9c0,5.9,1.3,10.5,3.9,13.9
	c2.5,3.4,6.5,5.3,10.7,5.1c4.2,0.1,8.3-1.8,10.9-5.2C759,168.6,760.4,164,760.4,158.3L760.4,158.3L760.4,158.3z"/>
<path d="M863.1,163.1h-45.9c0.7,10.2,7.2,15.3,19.3,15.3c7.2,0.2,14.3-1.7,20.5-5.4v15.7c-6.5,3.5-15,5.2-25.3,5.2
	c-11.3,0-20.2-3.1-26.4-9.4s-9.4-15.1-9.4-26.3c0-11.7,3.4-20.9,10.2-27.7c6.5-6.7,15.6-10.4,25-10.2c10.3,0,18.2,3,23.8,9.1
	c5.6,6.1,8.4,14.3,8.3,24.7L863.1,163.1L863.1,163.1z M843,149.8c0-10.1-4.1-15.1-12.2-15.1c-3.5,0-6.8,1.6-9,4.3
	c-2.6,3-4.2,6.8-4.6,10.8H843z"/>
<path d="M874.9,188.9V170c6.7,4.8,14.8,7.4,23.1,7.2c5.5,0,9.8-1.2,12.9-3.6c3.1-2.4,4.8-6.1,4.6-10c0.1-4.2-2.1-8.1-5.7-10.2
	c-3.8-2.3-9.1-3.5-15.8-3.5H885v-16.7h8.4c12.8,0,19.2-4.3,19.2-12.8c0-8-4.9-12-14.8-12c-6.6,0-13,2.1-19.2,6.4V97.2
	c6.9-3.5,14.9-5.2,24.1-5.2c10.1,0,17.9,2.3,23.5,6.8c5.5,4.2,8.6,10.8,8.4,17.6c0,12.9-6.5,20.9-19.6,24.2v0.4
	c7,0.9,12.5,3.4,16.5,7.6c4,4.1,6.2,9.7,6,15.4c0,9.2-3.4,16.5-10.1,21.8c-6.7,5.4-16,8-27.9,8C889.5,193.8,881.3,192.2,874.9,188.9
	L874.9,188.9z"/>
<path d="M959,192.1V93.7h34.9c35,0,52.5,16,52.5,48c0,15.3-4.8,27.6-14.3,36.7c-9.5,9.2-22.2,13.7-38.1,13.7L959,192.1L959,192.1z
	 M981.2,111.7v62.4h11c9.6,0,17.2-2.9,22.6-8.6c5.5-5.8,8.2-13.6,8.2-23.6c0-9.4-2.7-16.8-8.1-22.2s-13-8.1-22.8-8.1H981.2z"/>
<path d="M1063.3,193.8c-3.3,0.1-6.5-1.1-8.9-3.3c-2.3-2.1-3.6-5-3.6-8.1c-0.1-3.1,1.3-6.1,3.7-8.1c2.6-2.1,5.8-3.3,9.2-3.1
	c3.3-0.1,6.6,1,9.1,3.2c4.5,4.2,4.7,11.2,0.6,15.6c-0.2,0.2-0.4,0.4-0.6,0.6C1070,192.8,1066.7,194,1063.3,193.8L1063.3,193.8z"/>
<path d="M1137.6,104.6c-2.5-1.1-5.2-1.6-8-1.7c-6.9,0-10.4,3.8-10.4,11.3v7.5h16.1v16h-16.1v54.3h-21.6v-54.3h-11.8v-16h11.8v-8.7
	c0-8,2.6-14.5,7.8-19.4c5.2-4.9,12.3-7.4,21.3-7.3c3.7-0.1,7.4,0.4,11,1.4L1137.6,104.6L1137.6,104.6z"/>
<path d="M1191.5,141.4c-2.8-1.5-6-2.2-9.1-2.1c-4.3-0.2-8.4,1.8-11,5.2c-2.7,3.5-4,8.2-4,14.1v33.6h-21.7v-70.3h21.7v13h0.3
	c3.4-9.5,9.6-14.3,18.5-14.3c1.8-0.1,3.6,0.2,5.4,0.8L1191.5,141.4L1191.5,141.4z"/>
<path d="M603.3,282.8v-28.2h3.7v24.8h13.9v3.3H603.3z"/>
<path d="M622.3,282.8l10.8-28.2h4l11.5,28.2h-4.2l-3.3-8.5h-11.8l-3.1,8.5H622.3z M630.4,271.2h9.5l-2.9-7.8c-0.9-2.4-1.6-4.3-2-5.8
	c-0.4,1.8-0.9,3.6-1.5,5.4L630.4,271.2L630.4,271.2z"/>
<path d="M660.6,282.8v-28.2h19v3.3h-15.3v8.7h13.2v3.4h-13.2v12.8L660.6,282.8L660.6,282.8z"/>
<path d="M679.1,282.8l10.9-28.2h4l11.5,28.2h-4.2l-3.3-8.5h-11.8l-3.1,8.5H679.1L679.1,282.8z M687.3,271.2h9.5l-2.9-7.8
	c-0.9-2.4-1.6-4.3-2-5.8c-0.4,1.8-0.9,3.6-1.5,5.4L687.3,271.2L687.3,271.2z"/>
<path d="M708.3,282.8v-28.2h10.6c1.8-0.1,3.5,0.2,5.2,0.9c1.3,0.5,2.3,1.5,3.1,2.6c0.7,1.1,1.1,2.4,1.1,3.7c0,1.2-0.3,2.4-1,3.4
	c-0.7,1.1-1.8,2-3,2.6c1.5,0.4,2.9,1.3,3.9,2.6c0.9,1.2,1.4,2.7,1.4,4.3c0,1.3-0.3,2.5-0.8,3.7c-0.5,1-1.2,1.9-2.1,2.6
	c-0.9,0.7-2,1.1-3.1,1.4c-1.5,0.3-3,0.5-4.5,0.5H708.3L708.3,282.8z M712.1,266.4h6.1c1.2,0,2.4-0.1,3.6-0.3
	c0.8-0.2,1.6-0.7,2.1-1.4c0.5-0.7,0.8-1.6,0.7-2.5c0-0.9-0.2-1.7-0.7-2.5c-0.4-0.7-1.1-1.2-1.9-1.5c-1.4-0.3-2.8-0.5-4.3-0.4h-5.6
	L712.1,266.4L712.1,266.4z M712.1,279.4h7c0.8,0,1.7,0,2.5-0.1c0.8-0.1,1.5-0.4,2.2-0.8c0.6-0.4,1.1-0.9,1.4-1.6
	c0.4-0.7,0.6-1.5,0.6-2.4c0-1-0.3-1.9-0.8-2.7c-0.5-0.8-1.3-1.4-2.2-1.6c-1.3-0.4-2.7-0.5-4.1-0.5H712L712.1,279.4L712.1,279.4z"/>
<path d="M734.8,282.8v-28.2h12.5c1.9-0.1,3.9,0.2,5.7,0.8c1.3,0.5,2.4,1.5,3.1,2.7c0.8,1.3,1.2,2.8,1.2,4.2c0,1.9-0.7,3.7-2,5
	c-1.6,1.5-3.8,2.5-6,2.6c0.8,0.4,1.6,0.8,2.2,1.4c1.2,1.1,2.2,2.4,3.1,3.8l4.9,7.7h-4.7l-3.7-5.9c-1.1-1.7-2-3-2.7-3.9
	c-0.5-0.7-1.2-1.4-1.9-1.9c-0.5-0.3-1.1-0.6-1.7-0.8c-0.7-0.1-1.4-0.2-2.1-0.1h-4.3v12.5L734.8,282.8L734.8,282.8z M738.5,267h8
	c1.3,0,2.7-0.1,4-0.5c0.9-0.3,1.7-0.9,2.2-1.7c0.5-0.8,0.8-1.6,0.8-2.5c0-1.2-0.5-2.4-1.5-3.3c-1.3-1-3-1.4-4.6-1.3h-8.9L738.5,267z
	"/>
<path d="M763.8,282.8v-28.2h3.7v28.2H763.8z"/>
<path d="M795.4,279.8c1.5,1.1,3.1,1.9,4.8,2.6l-1.1,2.6c-2.2-0.8-4.2-2-6-3.5c-2.1,1.2-4.5,1.8-6.9,1.8c-2.4,0-4.8-0.6-6.9-1.8
	c-2.1-1.2-3.7-3-4.8-5.2c-1.2-2.3-1.7-4.9-1.7-7.5c0-2.6,0.5-5.2,1.7-7.6c1-2.2,2.7-4,4.8-5.2c2.1-1.2,4.5-1.8,7-1.8
	c2.5,0,4.9,0.6,7,1.9c2.1,1.2,3.7,3,4.8,5.2c1.1,2.4,1.7,4.9,1.6,7.5c0,2.1-0.3,4.2-1.1,6.2C798,276.8,796.9,278.4,795.4,279.8
	L795.4,279.8z M787.2,275c2,0.5,3.8,1.4,5.3,2.7c2.2-2,3.3-5,3.3-9c0-2.1-0.3-4.1-1.2-6c-0.7-1.6-1.9-3-3.4-4
	c-3.8-2.3-8.8-1.7-11.9,1.4c-1.8,1.9-2.8,4.8-2.8,8.5c0,3.7,0.9,6.5,2.7,8.4c1.8,2,4.3,3,7,2.9c1.3,0,2.6-0.2,3.8-0.8
	c-1.1-0.7-2.4-1.3-3.7-1.6L787.2,275L787.2,275z"/>
<path d="M823.2,254.6h3.7v16.3c0.1,2.3-0.3,4.6-1,6.7c-0.7,1.7-1.9,3.1-3.5,4.1c-2,1.1-4.3,1.7-6.6,1.6c-2.2,0.1-4.5-0.4-6.5-1.4
	c-1.6-0.9-2.9-2.2-3.6-4c-0.8-2.3-1.2-4.7-1.1-7.1v-16.3h3.7v16.3c-0.1,1.8,0.2,3.7,0.7,5.4c0.4,1.1,1.3,2.1,2.3,2.7
	c1.2,0.7,2.7,1,4.1,0.9c2.7,0,4.7-0.6,5.9-1.9s1.8-3.6,1.8-7.2L823.2,254.6L823.2,254.6z"/>
<path d="M833.2,282.8v-28.2h20.4v3.3h-16.6v8.6h15.6v3.3h-15.6v9.6h17.3v3.3H833.2L833.2,282.8z"/>
<path d="M890.4,272.9l3.7,0.9c-0.6,2.7-2.1,5.2-4.2,7c-2.1,1.6-4.8,2.5-7.4,2.4c-2.6,0.1-5.2-0.5-7.4-1.9c-2-1.3-3.5-3.2-4.3-5.4
	c-1-2.4-1.5-5-1.5-7.5c-0.1-2.7,0.5-5.3,1.7-7.7c1-2.1,2.7-3.9,4.8-5c2.1-1.1,4.5-1.7,6.8-1.7c2.5-0.1,5,0.7,7.1,2.2
	c2,1.5,3.4,3.6,4,6.1l-3.7,0.9c-0.5-1.8-1.5-3.3-2.8-4.5c-1.4-1-3-1.5-4.7-1.4c-1.9-0.1-3.8,0.5-5.4,1.6c-1.5,1-2.5,2.5-3.1,4.2
	c-0.6,1.7-0.9,3.6-0.9,5.4c-0.1,2.1,0.3,4.3,1,6.3c0.6,1.7,1.7,3.1,3.2,4c1.5,0.9,3.1,1.3,4.8,1.3c1.9,0.1,3.8-0.6,5.3-1.8
	C889,276.9,890,275,890.4,272.9L890.4,272.9z"/>
<path d="M897.6,269c0-4.7,1.3-8.3,3.8-11c2.5-2.7,6.1-4.1,9.7-4c2.5,0,4.9,0.6,7,1.9c2.1,1.2,3.7,3,4.8,5.2c1.1,2.4,1.7,5,1.6,7.6
	c0,2.7-0.5,5.3-1.7,7.7c-1.1,2.2-2.8,4-4.9,5.1c-2.1,1.1-4.5,1.8-6.8,1.7c-2.5,0-5-0.6-7.1-1.9c-2.1-1.2-3.7-3.1-4.8-5.2
	C898.1,273.9,897.6,271.5,897.6,269z M901.4,269.1c-0.2,2.9,0.8,5.8,2.7,8c3.7,3.8,9.7,3.9,13.5,0.3c0.1-0.1,0.2-0.2,0.3-0.3
	c1.8-2,2.7-4.8,2.7-8.4c0-2.1-0.3-4.1-1.2-6c-0.7-1.6-1.9-3-3.4-4c-1.5-0.9-3.2-1.4-5-1.4c-2.5,0-5,0.9-6.8,2.7
	C902.4,261.8,901.4,264.9,901.4,269.1L901.4,269.1z"/>
<path d="M929.2,282.8v-28.2h3.7v24.8h13.9v3.3H929.2z"/>
<path d="M951.1,282.8v-28.2h3.7v24.8h13.9v3.3H951.1z"/>
<path d="M970,282.8l10.8-28.2h4l11.5,28.2h-4.2l-3.3-8.5h-11.7l-3.1,8.5H970L970,282.8z M978.1,271.2h9.5l-2.9-7.8
	c-0.9-2.4-1.6-4.3-2-5.8c-0.4,1.8-0.9,3.6-1.5,5.4L978.1,271.2L978.1,271.2z"/>
<path d="M999.2,282.8v-28.2h10.6c1.8-0.1,3.5,0.2,5.2,0.9c1.2,0.5,2.3,1.5,3,2.6c0.7,1.1,1.1,2.4,1.1,3.7c0,1.2-0.3,2.4-1,3.4
	c-0.7,1.1-1.8,2-3,2.6c1.5,0.4,2.9,1.3,3.9,2.6c0.9,1.2,1.4,2.7,1.4,4.3c0,1.3-0.3,2.5-0.8,3.7c-0.5,1-1.2,1.9-2.1,2.6
	c-0.9,0.7-2,1.1-3.1,1.4c-1.5,0.3-3,0.5-4.5,0.5H999.2L999.2,282.8z M1002.9,266.4h6c1.2,0,2.4-0.1,3.5-0.3c0.8-0.2,1.6-0.7,2.2-1.4
	c0.5-0.7,0.8-1.6,0.7-2.5c0-0.9-0.2-1.7-0.7-2.5c-0.4-0.7-1.1-1.2-1.9-1.5c-1.4-0.3-2.8-0.5-4.3-0.4h-5.5L1002.9,266.4L1002.9,266.4
	z M1002.9,279.4h7c0.8,0,1.7,0,2.5-0.1c0.8-0.1,1.5-0.4,2.2-0.8c0.6-0.4,1.1-0.9,1.4-1.6c0.4-0.7,0.6-1.5,0.6-2.4
	c0-1-0.3-1.9-0.8-2.7c-0.5-0.8-1.3-1.4-2.2-1.6c-1.3-0.4-2.7-0.5-4.1-0.5h-6.5L1002.9,279.4L1002.9,279.4z"/>
<path d="M1024.5,269c0-4.7,1.3-8.3,3.8-11c2.5-2.7,6.1-4.1,9.7-4c2.5,0,4.9,0.6,7,1.9c2.1,1.2,3.7,3,4.8,5.2c1.1,2.4,1.7,5,1.6,7.6
	c0.1,2.7-0.5,5.3-1.7,7.7c-1.1,2.2-2.8,4-4.9,5.1c-2.1,1.1-4.4,1.8-6.8,1.7c-2.5,0-5-0.6-7.1-1.9c-2.1-1.2-3.7-3.1-4.8-5.2
	C1025,273.9,1024.5,271.5,1024.5,269L1024.5,269z M1028.3,269.1c-0.2,2.9,0.8,5.8,2.7,8c3.7,3.8,9.7,3.9,13.5,0.3
	c0.1-0.1,0.2-0.2,0.3-0.3c1.8-2,2.7-4.8,2.7-8.4c0-2.1-0.3-4.1-1.2-6c-0.7-1.6-1.9-3-3.4-4c-1.5-0.9-3.2-1.4-5-1.4
	c-2.5,0-5,0.9-6.8,2.7C1029.3,261.8,1028.3,264.9,1028.3,269.1L1028.3,269.1z"/>
<path d="M1056.3,282.8v-28.2h12.5c1.9-0.1,3.9,0.2,5.7,0.8c1.3,0.5,2.4,1.5,3.1,2.7c0.8,1.3,1.2,2.8,1.2,4.2c0,1.9-0.7,3.6-1.9,5
	c-1.7,1.5-3.8,2.5-6,2.6c0.8,0.4,1.6,0.8,2.2,1.4c1.2,1.1,2.2,2.4,3.1,3.8l4.9,7.7h-4.7l-3.7-5.9c-1.1-1.7-2-3-2.7-3.9
	c-0.5-0.7-1.2-1.4-1.9-1.9c-0.5-0.3-1.1-0.6-1.7-0.8c-0.7-0.1-1.4-0.2-2.1-0.1h-4.3v12.5L1056.3,282.8L1056.3,282.8z M1060,267h8
	c1.3,0,2.7-0.1,4-0.5c0.9-0.3,1.7-0.9,2.2-1.7c0.5-0.8,0.8-1.6,0.8-2.5c0-1.3-0.5-2.5-1.4-3.3c-1.3-1-2.9-1.4-4.6-1.3h-8.9V267z"/>
<path d="M1081.6,282.8l10.8-28.2h4l11.5,28.2h-4.2l-3.3-8.5h-11.8l-3.1,8.5H1081.6z M1089.7,271.2h9.6l-2.9-7.8
	c-0.9-2.4-1.6-4.3-2-5.8c-0.4,1.8-0.9,3.6-1.5,5.4L1089.7,271.2L1089.7,271.2z"/>
<path d="M1115.2,282.8v-24.8h-9.3v-3.3h22.3v3.3h-9.3v24.8H1115.2z"/>
<path d="M1132.7,282.8v-28.2h3.7v28.2H1132.7z"/>
<path d="M1151,282.8l-10.9-28.2h4l7.3,20.5c0.6,1.6,1.1,3.2,1.5,4.6c0.4-1.5,0.9-3.1,1.5-4.6l7.6-20.5h3.8l-11,28.2H1151z"/>
<path d="M1169.3,282.8v-28.2h20.4v3.3H1173v8.6h15.6v3.3H1173v9.6h17.3v3.3H1169.3z"/>
</svg>
