<svg id="svg" version="1.1" xmlns="http://www.w3.org/2000/svg" style="display: block;" viewBox="0 0 768 285"><path d="M0 0 C2.64 0 5.28 0 8 0 C13.89620396 8.50599916 19.76896606 17.02733648 25.6171875 25.56640625 C27.36138661 28.07976858 29.16442939 30.55257252 31 33 C31 33.99 31 34.98 31 36 C31.66 36 32.32 36 33 36 C34.98 39.3 36.96 42.6 39 46 C39.33 30.82 39.66 15.64 40 0 C42.97 0 45.94 0 49 0 C49 20.79 49 41.58 49 63 C46.03 63 43.06 63 40 63 C36.46061865 58.57577331 33.32673487 54.03546503 30.20703125 49.3125 C28.00923785 46.01386496 25.76409578 42.7534157 23.5 39.5 C19.2501975 33.38676591 15.11321884 27.20590912 11 21 C10.34 20.01 9.68 19.02 9 18 C8.67 32.85 8.34 47.7 8 63 C5.36 63 2.72 63 0 63 C0 42.21 0 21.42 0 0 Z " transform="translate(367,113)" style="fill: #2691C7;"/><path d="M0 0 C28 0 28 0 37 4 C37.99 4.66 38.98 5.32 40 6 C43 16 43 16 41 26 C36 32 36 32 31 34 C32.2375 35.98 32.2375 35.98 33.5 38 C45 57.71428571 45 57.71428571 45 63 C42.03 63 39.06 63 36 63 C30.51188128 54.35621302 26.24736923 45.2924677 22 36 C15.07 35.505 15.07 35.505 8 35 C8 44.24 8 53.48 8 63 C5.36 63 2.72 63 0 63 C0 42.21 0 21.42 0 0 Z M9 8 C9 14.27 9 20.54 9 27 C16.60894282 27.14493224 22.64015004 27.10281428 30 25 C30.99 24.01 31.98 23.02 33 22 C33.33 19.69 33.66 17.38 34 15 C30.48890121 9.89523546 30.48890121 9.89523546 26 8 C20.39 8 14.78 8 9 8 Z " transform="translate(556,113)" style="fill: #2591C7;"/><path d="M0 0 C5.47666881 2.32343525 10.01047679 4.67365119 15 8 C15 8.66 15 9.32 15 10 C16.32 10.66 17.64 11.32 19 12 C27.76245762 21.38834745 34.53174304 31.37995395 40 43 C40 43.99 40 44.98 40 46 C33.91226551 46.16453336 29.85649304 45.95216435 24 44 C23.4225 42.515 22.845 41.03 22.25 39.5 C18.11359353 29.38878417 12.99956239 20.43270721 6 12 C4.02 10.68 2.04 9.36 0 8 C-3.3 8 -6.6 8 -10 8 C-18.57044438 13.24721085 -23.35770288 21.2956929 -28 30 C-30.36029423 34.65388448 -32.6841066 39.32367679 -35 44 C-40 46 -40 46 -50 46 C-47.53373521 33.66867604 -38.41262779 22.88350373 -31 13 C-30.34 13 -29.68 13 -29 13 C-28.67 12.01 -28.34 11.02 -28 10 C-17.53656331 2.4032583 -13.13110392 0 0 0 Z " transform="translate(154,172)" style="fill: #2591C8;"/><path d="M0 0 C5.78486268 -0.17529887 9.40277699 0.134259 15 2 C15.49628906 3.02738281 15.99257812 4.05476563 16.50390625 5.11328125 C21.5399425 15.38603072 26.82450048 25.0306256 34 34 C38.1956008 36.55026715 41.11958914 38.02391783 46 39 C52.88816571 36.04792898 56.08929868 33.29284158 60.8125 27.625 C66.33494013 19.61204765 70.92062808 11.23811575 74 2 C79.98813365 0.28910467 83.92577149 -0.18689934 90 0 C87.80431313 10.97843436 80.37179484 20.02156181 74 29 C73.34 29 72.68 29 72 29 C71.34 30.32 70.68 31.64 70 33 C64.7670667 37.87935673 60.43078884 41.78460558 54 45 C36 45 36 45 28 41 C28 40.34 28 39.68 28 39 C26.68 38.34 25.36 37.68 24 37 C12.86250113 28.78306809 5.64704323 15.39212264 0 3 C0 2.01 0 1.02 0 0 Z " transform="translate(104,71)" style="fill: #2591C8;"/><path d="M0 0 C5.97699819 1.49424955 10.7271732 4.86925909 16 8 C17.32 8.66 18.64 9.32 20 10 C20 10.66 20 11.32 20 12 C21.65 12.66 23.3 13.32 25 14 C26.65 15.32 28.3 16.64 30 18 C30 18.66 30 19.32 30 20 C31.32 20.66 32.64 21.32 34 22 C34.99 22.99 35.98 23.98 37 25 C37 25.66 37 26.32 37 27 C37.66 27 38.32 27 39 27 C42.67135384 33.40133489 44.89215273 37.76216924 45.25 45.1875 C45.01002965 50.7668106 44.03104994 54.83774806 42 60 C41.34 60 40.68 60 40 60 C39.67 61.32 39.34 62.64 39 64 C35.84375949 67.96784521 33.0211673 70.78306616 29 74 C28.34 74 27.68 74 27 74 C27 74.66 27 75.32 27 76 C19.4606155 80.92258533 11.9479696 85.75194728 4 90 C2.68 90 1.36 90 0 90 C0 85.71 0 81.42 0 77 C5 73 5 73 9.5 71.25 C18.4861506 67.57384748 26.08962385 62.91037615 33 56 C33.66 56 34.32 56 35 56 C35.66 54.35 36.32 52.7 37 51 C37.495 50.01 37.495 50.01 38 49 C38 46.69 38 44.38 38 42 C33.51958716 33.69810549 33.51958716 33.69810549 26 29 C26 28.34 26 27.68 26 27 C24.68 26.67 23.36 26.34 22 26 C18.19729435 24.04714326 14.46877928 21.97624988 10.7265625 19.91015625 C6.72407507 17.73988541 6.72407507 17.73988541 1 16 C-1.38979311 11.22041378 0 5.34373985 0 0 Z " transform="translate(76,99)" style="fill: #2591C7;"/><path d="M0 0 C0.99 0 1.98 0 3 0 C3 4.62 3 9.24 3 14 C0 17 0 17 -2.75 18.125 C-6.27954115 19.68215051 -9.74399151 21.3858543 -13.1875 23.125 C-19 26 -19 26 -23 27 C-23 27.66 -23 28.32 -23 29 C-25.31 30.65 -27.62 32.3 -30 34 C-32.475 37.96 -32.475 37.96 -35 42 C-35.60024505 48.9714169 -35.60024505 48.9714169 -32 54 C-32 54.66 -32 55.32 -32 56 C-31.34 56 -30.68 56 -30 56 C-28.35 57.65 -26.7 59.3 -25 61 C-16.89063703 66.35050753 -9.10206986 70.49076825 0 74 C0.99 74.99 1.98 75.98 3 77 C3 81.29 3 85.58 3 90 C-7.2798285 88.28669525 -15.49952337 81.80865903 -24 76 C-24 75.34 -24 74.68 -24 74 C-25.32 73.34 -26.64 72.68 -28 72 C-34.06928053 67.81894008 -37.23893278 62.24337159 -41 56 C-42.41186716 48.94066419 -42.7721661 42.57388699 -40.6875 35.625 C-39 32 -39 32 -36 27 C-35.34 27 -34.68 27 -34 27 C-33.34 25.68 -32.68 24.36 -32 23 C-31.01 22.01 -30.02 21.02 -29 20 C-28.34 20 -27.68 20 -27 20 C-26.67 19.01 -26.34 18.02 -26 17 C-23.69 15.35 -21.38 13.7 -19 12 C-18.34 12 -17.68 12 -17 12 C-17 11.34 -17 10.68 -17 10 C-15.68 9.278125 -14.36 8.55625 -13 7.8125 C-8.57899905 5.32568696 -4.27836967 2.72259888 0 0 Z " transform="translate(219,99)" style="fill: #2591C8;"/><path d="M0 0 C6.60459175 0.39053238 12.22928215 2.17798988 18.4921875 4.265625 C17.8321875 6.575625 17.1721875 8.885625 16.4921875 11.265625 C7.8671875 10.390625 7.8671875 10.390625 4.4921875 9.265625 C-5.24231192 8.93484317 -5.24231192 8.93484317 -14.5078125 11.265625 C-14.66596658 16.85587337 -14.66596658 16.85587337 -13.5078125 22.265625 C-8.33193808 25.48250312 -3.43199633 27.37980626 2.4296875 29.015625 C3.94433594 29.44359375 5.45898438 29.8715625 7.01953125 30.3125 C8.16550781 30.62703125 9.31148438 30.9415625 10.4921875 31.265625 C12.9671875 33.245625 12.9671875 33.245625 15.4921875 35.265625 C15.4921875 35.925625 15.4921875 36.585625 15.4921875 37.265625 C16.1521875 37.265625 16.8121875 37.265625 17.4921875 37.265625 C20.03077854 42.34280707 18.4921875 48.58916288 18.4921875 54.265625 C13.4921875 61.265625 13.4921875 61.265625 7.4921875 64.265625 C3.30482978 64.319733 -0.88272869 64.35846583 -5.0703125 64.390625 C-8.56818359 64.42542969 -8.56818359 64.42542969 -12.13671875 64.4609375 C-18.5078125 64.265625 -18.5078125 64.265625 -25.5078125 62.265625 C-25.1778125 59.625625 -24.8478125 56.985625 -24.5078125 54.265625 C-23.2084375 54.595625 -21.9090625 54.925625 -20.5703125 55.265625 C-12.833895 56.5417351 -5.3284316 56.42893259 2.4921875 56.265625 C7.46840493 53.76505907 7.46840493 53.76505907 9.4921875 50.265625 C9.80841527 44.68726202 9.80841527 44.68726202 8.4921875 41.265625 C2.8468619 38.4429622 -3.11246313 36.79035602 -9.125 34.8984375 C-13.5078125 33.265625 -13.5078125 33.265625 -19.5078125 29.265625 C-22.3828125 25.515625 -22.3828125 25.515625 -24.5078125 22.265625 C-24.5078125 18.635625 -24.5078125 15.005625 -24.5078125 11.265625 C-17.8582917 1.2913438 -11.29341782 0.04026174 0 0 Z " transform="translate(289.5078125,111.734375)" style="fill: #2591C7;"/><path d="M0 0 C11.88 0 23.76 0 36 0 C36 2.31 36 4.62 36 7 C26.76 7 17.52 7 8 7 C8 13.27 8 19.54 8 26 C17.24 26 26.48 26 36 26 C36 28.64 36 31.28 36 34 C26.76 34 17.52 34 8 34 C8 41.26 8 48.52 8 56 C17.24 56 26.48 56 36 56 C36 58.31 36 60.62 36 63 C24.12 63 12.24 63 0 63 C0 42.21 0 21.42 0 0 Z " transform="translate(496,113)" style="fill: #2592C7;"/><path d="M0 0 C14.19 0 28.38 0 43 0 C43 2.31 43 4.62 43 7 C37.39 7 31.78 7 26 7 C26 25.48 26 43.96 26 63 C23.03 63 20.06 63 17 63 C17 44.52 17 26.04 17 7 C11.39 7 5.78 7 0 7 C0 4.69 0 2.38 0 0 Z " transform="translate(434,113)" style="fill: #2591C6;"/><path d="M0 0 C14.52 0 29.04 0 44 0 C44 2.31 44 4.62 44 7 C38.06 7 32.12 7 26 7 C26 25.48 26 43.96 26 63 C23.36 63 20.72 63 18 63 C18 44.52 18 26.04 18 7 C12.06 7 6.12 7 0 7 C0 4.69 0 2.38 0 0 Z " transform="translate(652,113)" style="fill: #2591C7;"/><path d="M0 0 C2.97 0 5.94 0 9 0 C9 20.79 9 41.58 9 63 C6.03 63 3.06 63 0 63 C0 42.21 0 21.42 0 0 Z " transform="translate(332,113)" style="fill: #2691C7;"/><path d="M0 0 C2.64 0 5.28 0 8 0 C8 20.79 8 41.58 8 63 C5.36 63 2.72 63 0 63 C0 42.21 0 21.42 0 0 Z " transform="translate(622,113)" style="fill: #2691C6;"/></svg>