<svg id="svg" version="1.1" xmlns="http://www.w3.org/2000/svg" style="display: block;" viewBox="0 0 1200 544"><path d="M0 0 C396 0 792 0 1200 0 C1200 179.52 1200 359.04 1200 544 C804 544 408 544 0 544 C0 364.48 0 184.96 0 0 Z M131 139 C129.535625 146.8375 128.07125 154.675 126.5625 162.75 C126.10174072 165.19889648 125.64098145 167.64779297 125.16625977 170.17089844 C124.79917321 172.15030376 124.43252704 174.12979082 124.06640625 176.109375 C123.78259094 177.60428467 123.78259094 177.60428467 123.49304199 179.12939453 C122.20217029 186.1518733 121.59926679 192.80879856 121 200 C110.44 200 99.88 200 89 200 C88.16048579 204.80089167 87.3232346 209.60207354 86.49145508 214.40429688 C86.20855474 216.03375128 85.92440294 217.66298897 85.63891602 219.29199219 C85.22593551 221.64981431 84.81764365 224.00841057 84.41015625 226.3671875 C84.28407486 227.08115692 84.15799347 227.79512634 84.02809143 228.5307312 C83.08380018 234.03662135 82.55981772 239.40182281 82 245 C91.9 245 101.8 245 112 245 C111.61328125 247.30871094 111.2265625 249.61742187 110.828125 251.99609375 C110.30167409 255.14316081 109.77583729 258.29033036 109.25 261.4375 C109.11272491 262.25854218 108.97544983 263.07958435 108.83401489 263.92550659 C107.15651404 273.9644099 105.51267582 284.00694956 103.9375 294.0625 C102.36639677 304.06799067 100.56088287 314.02266014 98.66186523 323.97094727 C96.82039633 333.67562818 95.78011541 342.98367376 95.6875 352.875 C95.65849609 353.89980469 95.62949219 354.92460937 95.59960938 355.98046875 C95.52885483 364.54721165 97.2603644 373.15944785 103.36328125 379.62890625 C119.61469322 393.24285757 144.49166354 391.12282993 164.26953125 389.54296875 C169.18900344 389.10300606 174.09490115 388.57767726 179 388 C180.68959274 379.31237778 182.27554248 370.61239472 183.6875 361.875 C183.81874268 361.08246826 183.94998535 360.28993652 184.08520508 359.47338867 C184.7526186 355.26792252 185.14340442 351.27481748 185 347 C184.04746338 347.02356567 184.04746338 347.02356567 183.07568359 347.04760742 C180.1755477 347.1102859 177.27555476 347.14909417 174.375 347.1875 C173.37597656 347.21263672 172.37695312 347.23777344 171.34765625 347.26367188 C165.83250552 347.31845814 161.69596836 347.2598227 157 344 C154.51455916 340.27183875 154.73216772 338.25719504 154.75 333.8125 C154.74226563 331.90404297 154.74226563 331.90404297 154.734375 329.95703125 C154.96288937 326.55283923 155.53169941 323.60759379 156.42480469 320.32983398 C157.69966666 315.16599364 158.40520348 309.87277017 159.25 304.625 C159.68447735 301.95673331 160.12005663 299.28869199 160.55859375 296.62109375 C160.72931648 295.58215721 160.72931648 295.58215721 160.90348816 294.52223206 C161.7739603 289.26745422 162.70551544 284.02523752 163.66015625 278.78515625 C163.79809601 278.02362244 163.93603577 277.26208862 164.07815552 276.47747803 C165.17344665 270.43247616 165.17344665 270.43247616 165.72106934 267.49859619 C166.10873961 265.42084242 166.48674237 263.3415143 166.86328125 261.26171875 C167.08282471 260.07537842 167.30236816 258.88903809 167.52856445 257.66674805 C168.19128122 253.12840119 168.19128122 253.12840119 168 245 C179.88 245 191.76 245 204 245 C205.88348943 236.83821246 207.58003286 229.05942815 208.625 220.8125 C208.74617188 219.90564453 208.86734375 218.99878906 208.9921875 218.06445312 C209.78361845 212.04699716 210.39531867 206.04681331 211 200 C199.78 200 188.56 200 177 200 C177.78375 195.235625 178.5675 190.47125 179.375 185.5625 C179.61782715 184.0782251 179.8606543 182.5939502 180.11083984 181.06469727 C181.11869858 174.97941184 182.176721 168.94192793 183.57568359 162.93432617 C184.26957256 159.77110276 184.69942896 156.58367051 185.125 153.375 C185.29257813 152.14523438 185.46015625 150.91546875 185.6328125 149.6484375 C186.11682596 145.45034205 186.11682596 145.45034205 186 139 C167.85 139 149.7 139 131 139 Z M645 139 C643.19721156 143.50697111 642.16236169 147.69051995 641.30859375 152.421875 C641.158423 153.24012756 641.00825226 154.05838013 640.85353088 154.90142822 C640.53734082 156.63576486 640.22400396 158.37062378 639.91333008 160.10595703 C639.44618775 162.70172482 638.96292502 165.29412598 638.47851562 167.88671875 C636.51570244 178.63386225 635.43048056 189.07876711 635 200 C624.44 200 613.88 200 603 200 C600.87539909 209.20660394 598.95123721 218.27962307 597.3125 227.5625 C597.08755859 228.80580078 596.86261719 230.04910156 596.63085938 231.33007812 C596.3127832 233.11768555 596.3127832 233.11768555 595.98828125 234.94140625 C595.79790283 236.01076416 595.60752441 237.08012207 595.41137695 238.18188477 C594.90370331 241.18501146 594.90370331 241.18501146 595 245 C605.23 245 615.46 245 626 245 C625.34 247.31 624.68 249.62 624 252 C623.68382168 253.55163111 623.3969343 255.10973658 623.1496582 256.67382812 C623.01199539 257.52988144 622.87433258 258.38593475 622.73249817 259.26792908 C622.59003159 260.17982498 622.447565 261.09172089 622.30078125 262.03125 C622.14481979 263.00344986 621.98885834 263.97564972 621.82817078 264.97731018 C621.31921139 268.15095571 620.81563132 271.32542571 620.3125 274.5 C616.27578515 299.86213091 616.27578515 299.86213091 613.91796875 312.06640625 C609.82120326 332.75144644 609.82120326 332.75144644 608.3125 353.75 C608.30541016 354.65371338 608.29832031 355.55742676 608.29101562 356.48852539 C608.50661065 364.12102639 610.57596846 372.15971543 615.1875 378.375 C626.98768089 389.38850216 643.04454342 390.18891428 658.375 390.125 C660.08526367 390.12101196 660.08526367 390.12101196 661.83007812 390.11694336 C668.72866702 390.07865018 675.61103125 389.93336737 682.5 389.5625 C683.61060791 389.50376709 683.61060791 389.50376709 684.74365234 389.44384766 C688.4972078 389.24319806 688.4972078 389.24319806 692 388 C692.60807814 385.38980647 693.09102133 382.8454984 693.5078125 380.203125 C693.63815887 379.4173407 693.76850525 378.6315564 693.90280151 377.82196045 C694.17752438 376.15478087 694.44791751 374.48688304 694.71435547 372.81835938 C695.12131948 370.27301968 695.54187892 367.73022437 695.96484375 365.1875 C696.22997762 363.56784088 696.49432577 361.9480529 696.7578125 360.328125 C696.88278107 359.56961243 697.00774963 358.81109985 697.13650513 358.02960205 C697.72462923 354.31911056 698.14742386 350.75884472 698 347 C697.29915283 346.98541748 696.59830566 346.97083496 695.8762207 346.95581055 C692.68776991 346.88114513 689.50034487 346.78454525 686.3125 346.6875 C684.65831055 346.65366211 684.65831055 346.65366211 682.97070312 346.61914062 C681.90400391 346.58369141 680.83730469 346.54824219 679.73828125 346.51171875 C678.75899658 346.48553467 677.77971191 346.45935059 676.77075195 346.43237305 C673.55614818 345.93073737 671.62398598 344.89669973 669 343 C664.46966257 333.93932513 669.33542982 318.99707649 671.125 309.4375 C671.60603027 306.79579825 672.08286367 304.15335903 672.55960083 301.51087952 C672.88519061 299.7078601 673.2120806 297.905075 673.54025269 296.1025238 C675.24403294 286.72941189 676.81877642 277.33604953 678.375 267.9375 C678.6276865 266.42047814 678.88045114 264.90346929 679.13330078 263.38647461 C680.15004386 257.26398412 681.12215464 251.14491751 682 245 C693.55 245 705.1 245 717 245 C718.95045259 236.54803879 720.77295576 228.22430199 722.1875 219.6875 C722.36474609 218.66849609 722.54199219 217.64949219 722.72460938 216.59960938 C722.97500977 215.10204102 722.97500977 215.10204102 723.23046875 213.57421875 C723.37895264 212.69338623 723.52743652 211.81255371 723.68041992 210.9050293 C724.07807728 207.29026616 724 203.63657035 724 200 C712.78 200 701.56 200 690 200 C690.99 195.05 691.98 190.1 693 185 C693.50912285 181.83212447 693.99742283 178.67625439 694.4375 175.5 C695.69123853 166.77560201 697.16711756 158.09986516 698.73022461 149.42578125 C698.89530518 148.50023437 699.06038574 147.5746875 699.23046875 146.62109375 C699.45319458 145.39024048 699.45319458 145.39024048 699.68041992 144.13452148 C700.07403471 141.86523029 700.07403471 141.86523029 700 139 C681.85 139 663.7 139 645 139 Z M412 219 C411.18015625 219.67546875 410.3603125 220.3509375 409.515625 221.046875 C393.89976073 234.33490857 380.25009849 255.29909393 378 276 C377.505 276.495 377.505 276.495 377 277 C373.2070145 296.35538189 375.03303493 316.0723507 383 334 C383.29358398 334.68642578 383.58716797 335.37285156 383.88964844 336.08007812 C387.4651425 344.32869788 392.0832247 351.24135887 398 358 C398.52980469 358.67289063 399.05960937 359.34578125 399.60546875 360.0390625 C409.35316836 372.12139634 423.1613401 380.06204376 437.5625 385.25 C438.24666992 385.4965332 438.93083984 385.74306641 439.63574219 385.99707031 C462.41894354 393.8223694 488.384689 391.38493156 510.17578125 381.4375 C530.09256747 371.30004865 546.12257606 358.02280647 558 339 C558.84691406 337.66195312 558.84691406 337.66195312 559.7109375 336.296875 C572.14627299 315.21361585 575.56327286 287.26142884 569.68725586 263.67993164 C563.16535982 239.58847083 549.07218293 219.50691194 527.3125 206.875 C489.60137239 185.66184587 444.57846172 190.73656632 412 219 Z M818 197 C816.7728125 197.3403125 815.545625 197.680625 814.28125 198.03125 C786.15230387 206.63266328 764.66500132 226.00545922 750.71484375 251.70703125 C748.4378389 256.07950299 746.49715566 260.30133738 745 265 C744.62875 266.10214844 744.2575 267.20429688 743.875 268.33984375 C740.9839814 277.91147608 740.60876921 287.35000767 740.5625 297.3125 C740.55250977 298.57545898 740.54251953 299.83841797 740.53222656 301.13964844 C740.73695091 323.44290384 750.18687556 344.53235555 765 361 C765.62519531 361.70769531 766.25039063 362.41539062 766.89453125 363.14453125 C782.62337664 379.93300412 805.82550314 389.14119116 828.5546875 390.25390625 C854.01919382 391.07389476 879.50506594 382.68485347 899 366 C899.78761719 365.35675781 900.57523438 364.71351563 901.38671875 364.05078125 C910.35030505 356.4380651 917.7915734 346.97679717 924 337 C924 336.34 924 335.68 924 335 C922.81729019 334.99413376 921.63458038 334.98826752 920.41603088 334.98222351 C909.24914796 334.92491499 898.08245825 334.85211079 886.91577244 334.76428509 C881.17538937 334.71963109 875.43507647 334.68036387 869.69458008 334.65356445 C864.15069641 334.62748211 858.60708345 334.58704449 853.06336784 334.53681374 C850.95240595 334.52017841 848.84139727 334.50864343 846.7303791 334.50238609 C843.7647095 334.49270881 840.7997273 334.46460586 837.83422852 334.43237305 C836.9689151 334.43380814 836.10360168 334.43524323 835.21206665 334.4367218 C824.63391229 334.27500314 814.77355398 330.32180644 806.953125 323.11328125 C798.13724959 313.52507487 795.36414964 302.91512813 795.6875 290.0078125 C795.99783451 284.51747779 797.55820418 279.90641217 800 275 C800.42410156 274.13761719 800.84820313 273.27523437 801.28515625 272.38671875 C807.09144145 261.72838463 816.29316095 254.83936176 827.5625 250.6875 C839.52247814 248.16581786 852.54884202 249.04399937 862.9375 255.5 C865.53376605 257.22354089 867.79733271 258.79733271 870 261 C869.83230656 263.77561564 869.0998447 264.89210681 867.20703125 266.9375 C866.41683594 267.618125 865.62664062 268.29875 864.8125 269 C863.90628906 269.78890625 863.00007812 270.5778125 862.06640625 271.390625 C861.04537371 272.26171105 860.02319156 273.13145098 859 274 C856.74926641 275.91580704 854.49930629 277.8325174 852.25 279.75 C851.66822998 280.24467773 851.08645996 280.73935547 850.48706055 281.24902344 C843.80450192 286.96366275 837.39833695 292.97117187 831 299 C831.33 299.99 831.66 300.98 832 302 C866.32 302 900.64 302 936 302 C936.8263392 275.05890607 936.8263392 275.05890607 929.75 249.8125 C929.44481445 249.14379883 929.13962891 248.47509766 928.82519531 247.78613281 C923.60714363 236.62604488 916.59872666 227.72104141 908 219 C907.26910156 218.25621094 906.53820312 217.51242188 905.78515625 216.74609375 C899.6166793 210.87627676 892.48051735 206.92600516 885 203 C884.10539063 202.51402344 883.21078125 202.02804688 882.2890625 201.52734375 C862.89385691 191.7700634 838.62796552 191.23903666 818 197 Z M1042 197 C1040.98164062 197.25523437 1039.96328125 197.51046875 1038.9140625 197.7734375 C1024.64534105 201.94311749 1012.34681614 210.66283794 1001 220 C1000.48381104 220.4132251 999.96762207 220.8264502 999.43579102 221.25219727 C987.06193687 231.27445922 977.72938529 247.31224059 972 262 C971.51273438 263.19496094 971.02546875 264.38992188 970.5234375 265.62109375 C962.65775698 287.29326871 964.47907965 315.75650723 974.01953125 336.4609375 C978.2634075 345.20445934 983.36489203 352.86053416 990 360 C990.804375 360.87269531 991.60875 361.74539063 992.4375 362.64453125 C1009.25355465 380.1700132 1032.5169515 389.61614709 1056.69750977 390.34301758 C1072.62349416 390.55284398 1088.92383174 387.76053647 1103 380 C1104.32257813 379.34064453 1104.32257813 379.34064453 1105.671875 378.66796875 C1115.75308346 373.49921357 1124.54883773 366.49080292 1133 359 C1128.56871759 353.69630887 1123.89951317 348.74688433 1119 343.875 C1118.31421875 343.18535156 1117.6284375 342.49570312 1116.921875 341.78515625 C1113.09628456 337.96686655 1109.19358408 334.40806021 1105 331 C1103.31126121 329.35570171 1101.64694485 327.68615782 1100 326 C1098.56384283 324.56115842 1097.12626374 323.12373515 1095.6875 321.6875 C1094.45833333 320.45833333 1093.22916667 319.22916667 1092 318 C1088.78527614 319.2069119 1085.98067698 320.53569023 1083.125 322.4375 C1074.54798559 327.91322107 1066.16773261 329.94863208 1056 329 C1045.54029829 326.51635305 1038.17538834 321.49185493 1032.32421875 312.5390625 C1027.40731096 303.1113632 1025.64307331 292.34034657 1028.58740234 281.92138672 C1032.46821195 271.61628129 1038.8596858 264.07098596 1048.62109375 259.06640625 C1058.52395103 254.62719436 1068.50873944 253.09481455 1078.8671875 257.01171875 C1083.96542425 259.37408852 1088.60082903 262.51732299 1093 266 C1096.73922129 264.4186938 1099.29649737 262.06769602 1102.25 259.3125 C1105.48815511 256.31520384 1108.72928552 253.32945391 1112.0625 250.4375 C1115.07073528 247.82298058 1118.04130249 245.17048344 1121 242.5 C1132.93543244 231.7379434 1132.93543244 231.7379434 1139 227 C1138.30599852 221.18106455 1132.88488952 217.7857028 1128.63085938 214.27392578 C1120.8463641 208.19316286 1112.06627722 203.80676032 1103 200 C1101.88496094 199.4946875 1100.76992187 198.989375 1099.62109375 198.46875 C1081.88076284 191.27310338 1060.24148848 192.34862267 1042 197 Z M265 200 C262.37408487 208.69983783 262.37408487 208.69983783 261.0625 217.3125 C260.39045701 223.4168905 259.43086262 229.41133316 258.25 235.4375 C256.56258823 244.07590704 254.91536363 252.72042315 253.32775879 261.37771606 C253.07430839 262.75601614 252.81927238 264.13402592 252.56237793 265.51168823 C251.03886362 273.68472348 249.70763994 281.86217157 248.56640625 290.09765625 C247.12694097 300.45745057 245.3719053 310.74787327 243.52050781 321.04125977 C242.99602051 323.95964293 242.47811005 326.87914074 241.9609375 329.79882812 C239.19476368 345.31570382 239.19476368 345.31570382 237.4375 352.69140625 C235.21205802 364.00608542 234.27343666 375.53907003 233 387 C251.15 387 269.3 387 288 387 C292.08864997 366.70092887 292.08864997 366.70092887 295.65530396 346.33001709 C296.26884091 342.51647342 296.89912679 338.70567922 297.52734375 334.89453125 C297.71429054 333.75763855 297.71429054 333.75763855 297.90501404 332.59777832 C299.62515991 322.16382198 301.48463714 311.75602088 303.39550781 301.35546875 C304.02602396 297.85554389 304.61981153 294.35052628 305.2109375 290.84375 C305.61912456 288.52071601 306.02795543 286.19779504 306.4375 283.875 C306.69092163 282.30177979 306.69092163 282.30177979 306.94946289 280.69677734 C308.54676042 271.88060811 311.80198122 264.32511987 318.875 258.5625 C326.69704641 253.26803647 335.08686443 251.94041668 344.3125 251.4375 C345.05306641 251.39431641 345.79363281 251.35113281 346.55664062 251.30664062 C348.37091464 251.20129568 350.1854355 251.10021684 352 251 C353.14554372 244.8264149 354.28414925 238.65157909 355.41796875 232.47583008 C355.80439655 230.37560145 356.19240442 228.2756629 356.58203125 226.17602539 C357.14219396 223.15586241 357.69664302 220.13469762 358.25 217.11328125 C358.51248535 215.70832146 358.51248535 215.70832146 358.78027344 214.27497864 C358.94043945 213.39444321 359.10060547 212.51390778 359.265625 211.60668945 C359.40774414 210.83613724 359.54986328 210.06558502 359.69628906 209.27168274 C360.0235798 206.82362891 360.05118677 204.46695402 360 202 C351.3098309 198.54053778 339.36876331 198.34473063 330.5 201.4375 C324.76665905 204.19947468 317.88821681 209.22356637 315 215 C315.66 210.05 316.32 205.1 317 200 C299.84 200 282.68 200 265 200 Z " transform="translate(0,0)" style="fill: #FEFEFE;"/><path d="M0 0 C17.06067402 14.86519854 28.12672537 36.09815435 30.9140625 58.5390625 C31.62987214 71.22828551 30.87146175 83.18431982 27.9140625 95.5390625 C27.72070312 96.48523438 27.52734375 97.43140625 27.328125 98.40625 C21.62970992 123.34606667 2.56004129 145.1557278 -18.61328125 158.453125 C-19.76854002 159.15224121 -20.9260827 159.84759802 -22.0859375 160.5390625 C-22.66504883 160.89258789 -23.24416016 161.24611328 -23.84082031 161.61035156 C-30.2044714 165.39882867 -37.04434785 167.43343183 -44.0859375 169.5390625 C-45.05684326 169.84191162 -45.05684326 169.84191162 -46.04736328 170.15087891 C-63.95078559 175.61925069 -83.36310924 175.62892796 -101.0859375 169.5390625 C-101.72853516 169.31943848 -102.37113281 169.09981445 -103.03320312 168.87353516 C-125.65179544 160.97045134 -144.45549835 145.24496882 -155.3984375 123.8515625 C-156.7021089 121.11018815 -157.90735614 118.33617732 -159.0859375 115.5390625 C-159.38935059 114.848125 -159.69276367 114.1571875 -160.00537109 113.4453125 C-166.89116695 97.2731681 -167.48644029 77.71532478 -164.0859375 60.5390625 C-163.5909375 60.0440625 -163.5909375 60.0440625 -163.0859375 59.5390625 C-162.7146875 57.6828125 -162.7146875 57.6828125 -162.3359375 55.7890625 C-157.66316439 34.44222131 -144.55479476 13.74337052 -127.0859375 0.5390625 C-126.15652344 -0.16476563 -125.22710937 -0.86859375 -124.26953125 -1.59375 C-85.87467306 -29.38880071 -37.49405873 -29.90032531 0 0 Z M-82.0859375 38.5390625 C-83.2203125 39.0753125 -84.3546875 39.6115625 -85.5234375 40.1640625 C-94.69799282 45.79681274 -102.42603169 53.61099373 -105.890625 63.9375 C-108.8099435 76.29461528 -107.72787532 88.64961586 -101.0859375 99.5390625 C-95.08849104 108.03144668 -87.19134065 113.16068753 -77.0859375 115.5390625 C-64.11958837 116.81819351 -53.62106041 114.50464323 -43.0859375 106.5390625 C-41.88130859 105.65347656 -41.88130859 105.65347656 -40.65234375 104.75 C-32.88237339 98.05623558 -27.64131489 86.99393598 -26.8828125 76.8125 C-26.70333048 65.71452853 -28.66106959 56.09873555 -36.0859375 47.5390625 C-38.89692191 44.86808881 -41.85224482 42.67192363 -45.0859375 40.5390625 C-46.15908203 39.77529297 -46.15908203 39.77529297 -47.25390625 38.99609375 C-56.9304868 33.05024305 -72.03449467 33.51334109 -82.0859375 38.5390625 Z " transform="translate(541.0859375,216.4609375)" style="fill: #D50A28;"/><path d="M0 0 C18.73223525 15.15282724 31.0923971 35.63641385 35.06640625 59.48046875 C35.06640625 69.38046875 35.06640625 79.28046875 35.06640625 89.48046875 C0.74640625 89.48046875 -33.57359375 89.48046875 -68.93359375 89.48046875 C-68.93359375 85.48046875 -68.93359375 85.48046875 -67.6394043 83.79223633 C-67.039104 83.24204834 -66.43880371 82.69186035 -65.8203125 82.125 C-65.15443115 81.50689453 -64.4885498 80.88878906 -63.80249023 80.25195312 C-63.08262939 79.60548828 -62.36276855 78.95902344 -61.62109375 78.29296875 C-60.52873413 77.29040039 -60.52873413 77.29040039 -59.41430664 76.26757812 C-54.50501078 71.79602285 -49.46522174 67.5448649 -44.26953125 63.41015625 C-41.44786451 61.07921416 -38.91032233 58.55266231 -36.37109375 55.921875 C-34.6914551 54.23767212 -32.89972076 52.81743512 -30.93359375 51.48046875 C-31.29222504 48.75839849 -31.67427174 47.70375865 -33.7890625 45.8828125 C-46.12660736 38.1330984 -57.29981946 35.75986984 -71.8125 37.90625 C-82.39550374 40.67515788 -91.77114724 47.50590146 -97.93359375 56.48046875 C-104.4830055 68.64979058 -107.41849953 81.18816306 -103.87109375 94.85546875 C-99.62638899 106.60244238 -90.82870145 114.36107821 -79.85546875 119.75390625 C-74.53061139 121.76696208 -69.16492166 121.64907768 -63.5534668 121.68579102 C-62.61639389 121.69569061 -61.67932098 121.70559021 -60.71385193 121.71578979 C-57.62436426 121.74731292 -54.53486124 121.77212589 -51.4453125 121.796875 C-49.30011094 121.81745246 -47.15491337 121.83844914 -45.00971985 121.85984802 C-39.36928538 121.91498688 -33.72881481 121.96443224 -28.08831787 122.01269531 C-22.33033036 122.06297013 -16.57239513 122.11862497 -10.81445312 122.17382812 C0.47912198 122.28130957 11.77274252 122.38277674 23.06640625 122.48046875 C14.61157193 144.7272078 -8.01588207 160.33856191 -28.87109375 169.73046875 C-54.91645079 180.50684534 -82.05360777 179.92724797 -108.04589844 169.31738281 C-130.12260375 159.52962469 -146.29652414 139.53428921 -154.93359375 117.48046875 C-163.25005782 93.76969886 -162.66726683 66.3627894 -152.34375 43.31640625 C-148.06176923 34.70499894 -143.13781662 26.8292862 -136.93359375 19.48046875 C-136.26714844 18.67996094 -135.60070312 17.87945312 -134.9140625 17.0546875 C-100.9418143 -22.3041514 -42.2841083 -30.74726774 0 0 Z " transform="translate(900.93359375,212.51953125)" style="fill: #D50B29;"/><path d="M0 0 C3.21208913 2.77351359 6.30134756 5.6604976 9.33642578 8.62744141 C8.82818191 12.72111474 6.82631574 14.31628408 3.77392578 16.93994141 C2.41074219 18.12523437 2.41074219 18.12523437 1.02001953 19.33447266 C0.13443359 20.09115234 -0.75115234 20.84783203 -1.66357422 21.62744141 C-2.99829752 22.79251763 -4.33176045 23.95904037 -5.66357422 25.12744141 C-6.6284375 25.96662109 -6.6284375 25.96662109 -7.61279297 26.82275391 C-9.92446219 28.85702282 -12.19888852 30.9296645 -14.47607422 33.00244141 C-18.92927229 37.02890334 -23.53149383 40.83369194 -28.21826172 44.58447266 C-30.50292724 46.49322676 -32.596084 48.48782943 -34.66357422 50.62744141 C-38.6899774 49.24696032 -41.39626373 47.32297256 -44.66357422 44.62744141 C-51.83468333 39.58828365 -60.13262968 38.74876524 -68.66357422 39.62744141 C-77.46564106 41.37946186 -84.16955036 44.42321171 -90.66357422 50.62744141 C-91.22689453 51.16240234 -91.79021484 51.69736328 -92.37060547 52.24853516 C-100.03895602 60.34398372 -102.36632816 69.18090987 -102.18701172 80.05981445 C-101.9074642 86.19238814 -100.84334406 91.29810752 -97.66357422 96.62744141 C-97.02742188 97.69865234 -97.02742188 97.69865234 -96.37841797 98.79150391 C-91.1002986 106.64252269 -82.92813649 111.80191189 -73.66357422 113.62744141 C-60.72860142 114.99501562 -49.78462982 110.43381613 -39.66357422 102.62744141 C-36.59644178 103.98986566 -34.54517129 105.52443845 -32.22607422 107.93994141 C-31.67048828 108.51357422 -31.11490234 109.08720703 -30.54248047 109.67822266 C-29.92244141 110.32146484 -29.30240234 110.96470703 -28.66357422 111.62744141 C-25.12208879 115.2277555 -21.46197504 118.66919116 -17.72607422 122.06494141 C-10.4794707 128.69488023 -3.5607058 135.63724508 3.33642578 142.62744141 C-4.71260568 150.71782064 -12.83645671 156.83938244 -22.66357422 162.62744141 C-23.49115234 163.14951172 -24.31873047 163.67158203 -25.17138672 164.20947266 C-45.04612216 175.51751179 -71.67739818 177.86714346 -93.56396484 172.22265625 C-117.54758505 165.4235788 -138.89604658 151.29509405 -151.33154297 129.09619141 C-151.77111328 128.28150391 -152.21068359 127.46681641 -152.66357422 126.62744141 C-153.09283203 125.89525391 -153.52208984 125.16306641 -153.96435547 124.40869141 C-164.97796425 104.49554117 -166.25991881 77.56858456 -160.96435547 55.62646484 C-156.55538106 40.32918989 -148.64651181 26.92000701 -138.66357422 14.62744141 C-137.70064453 13.3609375 -137.70064453 13.3609375 -136.71826172 12.06884766 C-132.95538243 7.59774584 -128.25010136 4.21480384 -123.66357422 0.62744141 C-122.80505859 -0.05833984 -121.94654297 -0.74412109 -121.06201172 -1.45068359 C-109.51793177 -10.30928271 -96.82106331 -16.08815942 -82.66357422 -19.37255859 C-81.82439453 -19.59685547 -80.98521484 -19.82115234 -80.12060547 -20.05224609 C-52.16827946 -26.54038536 -21.88959718 -18.06036328 0 0 Z " transform="translate(1129.66357421875,215.37255859375)" style="fill: #D60B28;"/><path d="M0 0 C18.15 0 36.3 0 55 0 C53.99914007 13.01117912 52.66006707 25.43937066 49.796875 38.1484375 C48.23141147 45.71484455 47.1621872 53.36276983 46 61 C57.22 61 68.44 61 80 61 C79.22369093 68.7630907 78.25842474 76.36679101 77.0625 84.0625 C76.80823242 85.74182617 76.80823242 85.74182617 76.54882812 87.45507812 C76.29456055 89.1034668 76.29456055 89.1034668 76.03515625 90.78515625 C75.80904663 92.25287476 75.80904663 92.25287476 75.57836914 93.75024414 C74.84722579 97.85841176 73.90519057 101.92664244 73 106 C61.12 106 49.24 106 37 106 C37 108.97 37 111.94 37 115 C36.61475622 117.81109399 36.18296905 120.54176487 35.64453125 123.3203125 C35.50255814 124.09013962 35.36058502 124.85996674 35.21430969 125.65312195 C34.91066832 127.29628072 34.60357741 128.9388053 34.29327393 130.58071899 C33.47491669 134.91150873 32.68128732 139.24682441 31.88671875 143.58203125 C31.7261499 144.45512436 31.56558105 145.32821747 31.40014648 146.22776794 C29.60456936 156.05197544 28.03761678 165.91073063 26.51098633 175.77978516 C26.32431396 176.97265137 26.1376416 178.16551758 25.9453125 179.39453125 C25.70578857 180.95457886 25.70578857 180.95457886 25.46142578 182.54614258 C25 185 25 185 24 187 C23.79646658 189.45693908 23.67659353 191.85242653 23.625 194.3125 C23.55152344 196.28669922 23.55152344 196.28669922 23.4765625 198.30078125 C24.12018408 202.84936065 25.43201881 204.21153377 29 207 C32.00015912 208.00005304 33.97423756 208.11575585 37.10546875 208.09765625 C38.08837891 208.09443359 39.07128906 208.09121094 40.08398438 208.08789062 C41.10814453 208.07951172 42.13230469 208.07113281 43.1875 208.0625 C44.22326172 208.05798828 45.25902344 208.05347656 46.32617188 208.04882812 C48.88417266 208.0370401 51.44205733 208.02058515 54 208 C52.65933639 221.81405853 50.68280054 235.38925858 48 249 C-8.36038758 255.63760611 -8.36038758 255.63760611 -26 242 C-32.62210466 235.40520299 -35.35068321 227.54121634 -35.51831055 218.33740234 C-35.51226807 217.38043457 -35.50622559 216.4234668 -35.5 215.4375 C-35.49718018 214.4160791 -35.49436035 213.3946582 -35.49145508 212.34228516 C-35.16321437 195.96929698 -31.90484565 179.61695372 -28.41796875 163.6640625 C-27.24628596 158.28961268 -26.32478206 152.95325659 -25.625 147.5 C-23.7453493 133.61227821 -21.33450969 119.81777358 -19 106 C-28.9 106 -38.8 106 -49 106 C-46.90972938 90.95005154 -44.54062429 75.98092255 -42 61 C-31.44 61 -20.88 61 -10 61 C-9.67 57.04 -9.34 53.08 -9 49 C-8.52498726 45.86302672 -8.02235181 42.7637857 -7.44140625 39.6484375 C-7.29219223 38.82348785 -7.14297821 37.99853821 -6.98924255 37.14859009 C-6.5189594 34.55639485 -6.0407992 31.96572664 -5.5625 29.375 C-5.24624343 27.63550774 -4.93048513 25.89592482 -4.61523438 24.15625 C-3.14720635 16.08818855 -1.60850614 8.04253072 0 0 Z " transform="translate(131,139)" style="fill: #D60B28;"/><path d="M0 0 C18.15 0 36.3 0 55 0 C51.79726891 22.41911765 51.79726891 22.41911765 49.7578125 32.86328125 C48.65942183 38.66352964 47.83965983 44.50924098 47.00195312 50.35180664 C46.88529297 51.1586792 46.76863281 51.96555176 46.6484375 52.796875 C46.54708496 53.51198242 46.44573242 54.22708984 46.34130859 54.96386719 C46.00056521 56.99662813 45.49989547 59.00041813 45 61 C56.22 61 67.44 61 79 61 C79 70.00072925 79 70.00072925 78.46508789 72.98168945 C78.34819107 73.6521077 78.23129425 74.32252594 78.1108551 75.01325989 C77.98274948 75.70626694 77.85464386 76.39927399 77.72265625 77.11328125 C77.52644936 78.21762764 77.52644936 78.21762764 77.32627869 79.34428406 C77.0512258 80.88513057 76.77291409 82.42539867 76.49145508 83.96508789 C76.06067362 86.32249467 75.6398491 88.68151496 75.22070312 91.04101562 C74.9510928 92.54437352 74.68093019 94.0476325 74.41015625 95.55078125 C74.22103416 96.60547356 74.22103416 96.60547356 74.02809143 97.68147278 C73.50352754 100.54205229 72.92129674 103.23610978 72 106 C60.45 106 48.9 106 37 106 C36.154375 111.65125 35.30875 117.3025 34.4375 123.125 C31.67298858 141.32988302 28.47426211 159.43547185 25.02728271 177.52268982 C23.87464149 183.58413681 22.8249932 189.44504253 22.6875 195.625 C22.65011719 196.73101562 22.61273437 197.83703125 22.57421875 198.9765625 C23.09206318 202.65373303 24.13160143 203.73295401 27 206 C29.57211322 207.28605661 31.56906966 207.21043941 34.4453125 207.31640625 C35.52167969 207.35830078 36.59804688 207.40019531 37.70703125 207.44335938 C38.83496094 207.48267578 39.96289062 207.52199219 41.125 207.5625 C42.26066406 207.60568359 43.39632812 207.64886719 44.56640625 207.69335938 C47.37747768 207.7996604 50.18863945 207.90169405 53 208 C52.421035 215.0643814 51.64443777 222.05772572 50.5625 229.0625 C50.36346069 230.35957886 50.36346069 230.35957886 50.16040039 231.68286133 C48.27502225 243.81490953 48.27502225 243.81490953 47 249 C32.09528175 256.45235913 0.565169 252.42834711 -15 248 C-23.04850796 245.26080191 -28.32293758 241.50285105 -32.88671875 234.29296875 C-41.77599326 215.98418231 -34.83325609 191.30312948 -31.19226074 172.41815186 C-30.31399541 167.83753659 -29.4716435 163.25012233 -28.62155151 158.66421509 C-28.13932452 156.06535512 -27.6542661 153.46701885 -27.16629028 150.86923218 C-25.10284287 139.80935865 -23.29014565 128.71689218 -21.57002258 117.59898376 C-21.37764511 116.36886063 -21.18526764 115.13873749 -20.98706055 113.87133789 C-20.81981979 112.78317276 -20.65257904 111.69500763 -20.48027039 110.5738678 C-20 108 -20 108 -19 106 C-29.23 106 -39.46 106 -50 106 C-49.3848379 99.84837896 -48.7442946 93.91963094 -47.625 87.875 C-47.43091553 86.80463501 -47.43091553 86.80463501 -47.23291016 85.71264648 C-46.96253053 84.22686313 -46.69022449 82.74142908 -46.41601562 81.25634766 C-45.99591371 78.97783713 -45.58350415 76.69802357 -45.171875 74.41796875 C-44.90669999 72.96606358 -44.64109113 71.51423756 -44.375 70.0625 C-44.25205566 69.3823584 -44.12911133 68.7022168 -44.00244141 68.00146484 C-43.11533566 63.23067132 -43.11533566 63.23067132 -42 61 C-31.44 61 -20.88 61 -10 61 C-9.90589844 58.61265625 -9.81179688 56.2253125 -9.71484375 53.765625 C-9.23236962 44.481098 -7.74927615 35.45794565 -6.04370117 26.32958984 C-5.55553473 23.71266104 -5.08436078 21.09305886 -4.61523438 18.47265625 C-4.308263 16.78888513 -4.00035588 15.10528427 -3.69140625 13.421875 C-3.55174942 12.64793396 -3.41209259 11.87399292 -3.26820374 11.07659912 C-2.51623388 7.08731888 -1.52473711 3.81184277 0 0 Z " transform="translate(645,139)" style="fill: #D60B28;"/><path d="M0 0 C17.16 0 34.32 0 52 0 C51.34 4.95 50.68 9.9 50 15 C50.99 13.783125 51.98 12.56625 53 11.3125 C58.25742296 5.31160309 64.88836805 0.55776478 73.07055664 -0.18896484 C75.38386016 -0.26806506 77.68553001 -0.27291554 80 -0.25 C80.78117187 -0.25773438 81.56234375 -0.26546875 82.3671875 -0.2734375 C86.96876368 -0.25794398 90.6709182 0.25171697 95 2 C94.42722206 8.57338861 93.56869965 15.02045109 92.37109375 21.5078125 C92.1401577 22.78505692 92.1401577 22.78505692 91.90455627 24.08810425 C91.41919808 26.7677498 90.92845256 29.44637441 90.4375 32.125 C90.10445845 33.95826811 89.77177305 35.79160095 89.43945312 37.625 C88.63041007 42.084091 87.81653903 46.54227583 87 51 C85.37082642 51.08761597 85.37082642 51.08761597 83.70874023 51.17700195 C82.26284547 51.25970831 80.81696398 51.34264707 79.37109375 51.42578125 C78.65771851 51.46352661 77.94434326 51.50127197 77.20935059 51.54016113 C67.33702684 52.12022028 58.53576528 54.25592991 51 61 C43.95374565 69.16518745 42.76882448 78.78491939 40.8125 89.0625 C40.49321533 90.73397095 40.49321533 90.73397095 40.16748047 92.43920898 C36.25147559 113.09216863 32.55581216 133.78853608 29.03125 154.51171875 C28.8706308 155.45604263 28.7100116 156.40036652 28.54452515 157.37330627 C27.7653646 161.96106118 26.99049361 166.54949782 26.22119141 171.13891602 C26.07943481 171.97932938 25.93767822 172.81974274 25.79162598 173.68562317 C25.52635375 175.25835518 25.26297519 176.83140821 25.00183105 178.40483093 C24.50072554 181.36785518 23.95217014 184.14348959 23 187 C4.85 187 -13.3 187 -32 187 C-28.71659804 157.44938233 -28.71659804 157.44938233 -25.54083252 142.62353516 C-24.51178593 137.63171274 -23.63468806 132.61214024 -22.74609375 127.59375 C-22.55665192 126.52447266 -22.36721008 125.45519531 -22.17202759 124.35351562 C-21.78631832 122.16927987 -21.40159065 119.98487057 -21.01782227 117.80029297 C-20.4380156 114.50293221 -19.85301684 111.20652116 -19.26757812 107.91015625 C-17.39054104 97.28934157 -15.61044127 86.66680616 -14.05162048 75.99455261 C-12.9859909 68.75188221 -11.71942564 61.55466108 -10.38049316 54.35806274 C-9.98582133 52.2362743 -9.59543064 50.11373315 -9.20605469 47.9909668 C-8.69648927 45.21381166 -8.18582263 42.43686459 -7.67382812 39.66015625 C-5.73281096 29.11677604 -3.85141534 18.59613855 -2.52734375 7.953125 C-2 5 -2 5 0 0 Z " transform="translate(265,200)" style="fill: #D60B28;"/><path d="M0 0 C7.55732386 6.09541531 12.20325845 14.51145463 13.4453125 24.171875 C14.40805907 36.55004522 11.57386515 46.039922 4.4453125 56.171875 C1.9453125 58.984375 1.9453125 58.984375 -0.5546875 61.171875 C-1.4209375 61.996875 -2.2871875 62.821875 -3.1796875 63.671875 C-12.81472339 71.62140853 -24.54736238 73.21955289 -36.5546875 72.171875 C-47.08172484 70.0277177 -55.26921158 63.80961601 -61.33984375 55.08203125 C-67.71495134 45.05814825 -67.89950661 33.43021738 -65.4921875 21.984375 C-62.40699508 11.09292828 -54.5558587 2.36631736 -44.93359375 -3.3984375 C-29.88403751 -11.22510122 -13.63357574 -9.75613677 0 0 Z " transform="translate(500.5546875,259.828125)" style="fill: #FEFBFB;"/></svg>