<svg id="svg" version="1.1" xmlns="http://www.w3.org/2000/svg" style="display: block;" viewBox="0 0 1200 544"><path d="M0 0 C17.06067402 14.86519854 28.12672537 36.09815435 30.9140625 58.5390625 C31.62987214 71.22828551 30.87146175 83.18431982 27.9140625 95.5390625 C27.72070312 96.48523438 27.52734375 97.43140625 27.328125 98.40625 C21.62970992 123.34606667 2.56004129 145.1557278 -18.61328125 158.453125 C-19.76854002 159.15224121 -20.9260827 159.84759802 -22.0859375 160.5390625 C-22.66504883 160.89258789 -23.24416016 161.24611328 -23.84082031 161.61035156 C-30.2044714 165.39882867 -37.04434785 167.43343183 -44.0859375 169.5390625 C-45.05684326 169.84191162 -45.05684326 169.84191162 -46.04736328 170.15087891 C-63.95078559 175.61925069 -83.36310924 175.62892796 -101.0859375 169.5390625 C-101.72853516 169.31943848 -102.37113281 169.09981445 -103.03320312 168.87353516 C-125.65179544 160.97045134 -144.45549835 145.24496882 -155.3984375 123.8515625 C-156.7021089 121.11018815 -157.90735614 118.33617732 -159.0859375 115.5390625 C-159.38935059 114.848125 -159.69276367 114.1571875 -160.00537109 113.4453125 C-166.89116695 97.2731681 -167.48644029 77.71532478 -164.0859375 60.5390625 C-163.5909375 60.0440625 -163.5909375 60.0440625 -163.0859375 59.5390625 C-162.7146875 57.6828125 -162.7146875 57.6828125 -162.3359375 55.7890625 C-157.66316439 34.44222131 -144.55479476 13.74337052 -127.0859375 0.5390625 C-126.15652344 -0.16476563 -125.22710937 -0.86859375 -124.26953125 -1.59375 C-85.87467306 -29.38880071 -37.49405873 -29.90032531 0 0 Z M-82.0859375 38.5390625 C-83.2203125 39.0753125 -84.3546875 39.6115625 -85.5234375 40.1640625 C-94.69799282 45.79681274 -102.42603169 53.61099373 -105.890625 63.9375 C-108.8099435 76.29461528 -107.72787532 88.64961586 -101.0859375 99.5390625 C-95.08849104 108.03144668 -87.19134065 113.16068753 -77.0859375 115.5390625 C-64.11958837 116.81819351 -53.62106041 114.50464323 -43.0859375 106.5390625 C-41.88130859 105.65347656 -41.88130859 105.65347656 -40.65234375 104.75 C-32.88237339 98.05623558 -27.64131489 86.99393598 -26.8828125 76.8125 C-26.70333048 65.71452853 -28.66106959 56.09873555 -36.0859375 47.5390625 C-38.89692191 44.86808881 -41.85224482 42.67192363 -45.0859375 40.5390625 C-46.15908203 39.77529297 -46.15908203 39.77529297 -47.25390625 38.99609375 C-56.9304868 33.05024305 -72.03449467 33.51334109 -82.0859375 38.5390625 Z " transform="translate(541.0859375,216.4609375)" style="fill: #D50A28;"/><path d="M0 0 C18.73223525 15.15282724 31.0923971 35.63641385 35.06640625 59.48046875 C35.06640625 69.38046875 35.06640625 79.28046875 35.06640625 89.48046875 C0.74640625 89.48046875 -33.57359375 89.48046875 -68.93359375 89.48046875 C-68.93359375 85.48046875 -68.93359375 85.48046875 -67.6394043 83.79223633 C-67.039104 83.24204834 -66.43880371 82.69186035 -65.8203125 82.125 C-65.15443115 81.50689453 -64.4885498 80.88878906 -63.80249023 80.25195312 C-63.08262939 79.60548828 -62.36276855 78.95902344 -61.62109375 78.29296875 C-60.52873413 77.29040039 -60.52873413 77.29040039 -59.41430664 76.26757812 C-54.50501078 71.79602285 -49.46522174 67.5448649 -44.26953125 63.41015625 C-41.44786451 61.07921416 -38.91032233 58.55266231 -36.37109375 55.921875 C-34.6914551 54.23767212 -32.89972076 52.81743512 -30.93359375 51.48046875 C-31.29222504 48.75839849 -31.67427174 47.70375865 -33.7890625 45.8828125 C-46.12660736 38.1330984 -57.29981946 35.75986984 -71.8125 37.90625 C-82.39550374 40.67515788 -91.77114724 47.50590146 -97.93359375 56.48046875 C-104.4830055 68.64979058 -107.41849953 81.18816306 -103.87109375 94.85546875 C-99.62638899 106.60244238 -90.82870145 114.36107821 -79.85546875 119.75390625 C-74.53061139 121.76696208 -69.16492166 121.64907768 -63.5534668 121.68579102 C-62.61639389 121.69569061 -61.67932098 121.70559021 -60.71385193 121.71578979 C-57.62436426 121.74731292 -54.53486124 121.77212589 -51.4453125 121.796875 C-49.30011094 121.81745246 -47.15491337 121.83844914 -45.00971985 121.85984802 C-39.36928538 121.91498688 -33.72881481 121.96443224 -28.08831787 122.01269531 C-22.33033036 122.06297013 -16.57239513 122.11862497 -10.81445312 122.17382812 C0.47912198 122.28130957 11.77274252 122.38277674 23.06640625 122.48046875 C14.61157193 144.7272078 -8.01588207 160.33856191 -28.87109375 169.73046875 C-54.91645079 180.50684534 -82.05360777 179.92724797 -108.04589844 169.31738281 C-130.12260375 159.52962469 -146.29652414 139.53428921 -154.93359375 117.48046875 C-163.25005782 93.76969886 -162.66726683 66.3627894 -152.34375 43.31640625 C-148.06176923 34.70499894 -143.13781662 26.8292862 -136.93359375 19.48046875 C-136.26714844 18.67996094 -135.60070312 17.87945312 -134.9140625 17.0546875 C-100.9418143 -22.3041514 -42.2841083 -30.74726774 0 0 Z " transform="translate(900.93359375,212.51953125)" style="fill: #D50B29;"/><path d="M0 0 C3.21208913 2.77351359 6.30134756 5.6604976 9.33642578 8.62744141 C8.82818191 12.72111474 6.82631574 14.31628408 3.77392578 16.93994141 C2.41074219 18.12523437 2.41074219 18.12523437 1.02001953 19.33447266 C0.13443359 20.09115234 -0.75115234 20.84783203 -1.66357422 21.62744141 C-2.99829752 22.79251763 -4.33176045 23.95904037 -5.66357422 25.12744141 C-6.6284375 25.96662109 -6.6284375 25.96662109 -7.61279297 26.82275391 C-9.92446219 28.85702282 -12.19888852 30.9296645 -14.47607422 33.00244141 C-18.92927229 37.02890334 -23.53149383 40.83369194 -28.21826172 44.58447266 C-30.50292724 46.49322676 -32.596084 48.48782943 -34.66357422 50.62744141 C-38.6899774 49.24696032 -41.39626373 47.32297256 -44.66357422 44.62744141 C-51.83468333 39.58828365 -60.13262968 38.74876524 -68.66357422 39.62744141 C-77.46564106 41.37946186 -84.16955036 44.42321171 -90.66357422 50.62744141 C-91.22689453 51.16240234 -91.79021484 51.69736328 -92.37060547 52.24853516 C-100.03895602 60.34398372 -102.36632816 69.18090987 -102.18701172 80.05981445 C-101.9074642 86.19238814 -100.84334406 91.29810752 -97.66357422 96.62744141 C-97.02742188 97.69865234 -97.02742188 97.69865234 -96.37841797 98.79150391 C-91.1002986 106.64252269 -82.92813649 111.80191189 -73.66357422 113.62744141 C-60.72860142 114.99501562 -49.78462982 110.43381613 -39.66357422 102.62744141 C-36.59644178 103.98986566 -34.54517129 105.52443845 -32.22607422 107.93994141 C-31.67048828 108.51357422 -31.11490234 109.08720703 -30.54248047 109.67822266 C-29.92244141 110.32146484 -29.30240234 110.96470703 -28.66357422 111.62744141 C-25.12208879 115.2277555 -21.46197504 118.66919116 -17.72607422 122.06494141 C-10.4794707 128.69488023 -3.5607058 135.63724508 3.33642578 142.62744141 C-4.71260568 150.71782064 -12.83645671 156.83938244 -22.66357422 162.62744141 C-23.49115234 163.14951172 -24.31873047 163.67158203 -25.17138672 164.20947266 C-45.04612216 175.51751179 -71.67739818 177.86714346 -93.56396484 172.22265625 C-117.54758505 165.4235788 -138.89604658 151.29509405 -151.33154297 129.09619141 C-151.77111328 128.28150391 -152.21068359 127.46681641 -152.66357422 126.62744141 C-153.09283203 125.89525391 -153.52208984 125.16306641 -153.96435547 124.40869141 C-164.97796425 104.49554117 -166.25991881 77.56858456 -160.96435547 55.62646484 C-156.55538106 40.32918989 -148.64651181 26.92000701 -138.66357422 14.62744141 C-137.70064453 13.3609375 -137.70064453 13.3609375 -136.71826172 12.06884766 C-132.95538243 7.59774584 -128.25010136 4.21480384 -123.66357422 0.62744141 C-122.80505859 -0.05833984 -121.94654297 -0.74412109 -121.06201172 -1.45068359 C-109.51793177 -10.30928271 -96.82106331 -16.08815942 -82.66357422 -19.37255859 C-81.82439453 -19.59685547 -80.98521484 -19.82115234 -80.12060547 -20.05224609 C-52.16827946 -26.54038536 -21.88959718 -18.06036328 0 0 Z " transform="translate(1129.66357421875,215.37255859375)" style="fill: #D60B28;"/><path d="M0 0 C18.15 0 36.3 0 55 0 C53.99914007 13.01117912 52.66006707 25.43937066 49.796875 38.1484375 C48.23141147 45.71484455 47.1621872 53.36276983 46 61 C57.22 61 68.44 61 80 61 C79.22369093 68.7630907 78.25842474 76.36679101 77.0625 84.0625 C76.80823242 85.74182617 76.80823242 85.74182617 76.54882812 87.45507812 C76.29456055 89.1034668 76.29456055 89.1034668 76.03515625 90.78515625 C75.80904663 92.25287476 75.80904663 92.25287476 75.57836914 93.75024414 C74.84722579 97.85841176 73.90519057 101.92664244 73 106 C61.12 106 49.24 106 37 106 C37 108.97 37 111.94 37 115 C36.61475622 117.81109399 36.18296905 120.54176487 35.64453125 123.3203125 C35.50255814 124.09013962 35.36058502 124.85996674 35.21430969 125.65312195 C34.91066832 127.29628072 34.60357741 128.9388053 34.29327393 130.58071899 C33.47491669 134.91150873 32.68128732 139.24682441 31.88671875 143.58203125 C31.7261499 144.45512436 31.56558105 145.32821747 31.40014648 146.22776794 C29.60456936 156.05197544 28.03761678 165.91073063 26.51098633 175.77978516 C26.32431396 176.97265137 26.1376416 178.16551758 25.9453125 179.39453125 C25.70578857 180.95457886 25.70578857 180.95457886 25.46142578 182.54614258 C25 185 25 185 24 187 C23.79646658 189.45693908 23.67659353 191.85242653 23.625 194.3125 C23.55152344 196.28669922 23.55152344 196.28669922 23.4765625 198.30078125 C24.12018408 202.84936065 25.43201881 204.21153377 29 207 C32.00015912 208.00005304 33.97423756 208.11575585 37.10546875 208.09765625 C38.08837891 208.09443359 39.07128906 208.09121094 40.08398438 208.08789062 C41.10814453 208.07951172 42.13230469 208.07113281 43.1875 208.0625 C44.22326172 208.05798828 45.25902344 208.05347656 46.32617188 208.04882812 C48.88417266 208.0370401 51.44205733 208.02058515 54 208 C52.65933639 221.81405853 50.68280054 235.38925858 48 249 C-8.36038758 255.63760611 -8.36038758 255.63760611 -26 242 C-32.62210466 235.40520299 -35.35068321 227.54121634 -35.51831055 218.33740234 C-35.51226807 217.38043457 -35.50622559 216.4234668 -35.5 215.4375 C-35.49718018 214.4160791 -35.49436035 213.3946582 -35.49145508 212.34228516 C-35.16321437 195.96929698 -31.90484565 179.61695372 -28.41796875 163.6640625 C-27.24628596 158.28961268 -26.32478206 152.95325659 -25.625 147.5 C-23.7453493 133.61227821 -21.33450969 119.81777358 -19 106 C-28.9 106 -38.8 106 -49 106 C-46.90972938 90.95005154 -44.54062429 75.98092255 -42 61 C-31.44 61 -20.88 61 -10 61 C-9.67 57.04 -9.34 53.08 -9 49 C-8.52498726 45.86302672 -8.02235181 42.7637857 -7.44140625 39.6484375 C-7.29219223 38.82348785 -7.14297821 37.99853821 -6.98924255 37.14859009 C-6.5189594 34.55639485 -6.0407992 31.96572664 -5.5625 29.375 C-5.24624343 27.63550774 -4.93048513 25.89592482 -4.61523438 24.15625 C-3.14720635 16.08818855 -1.60850614 8.04253072 0 0 Z " transform="translate(131,139)" style="fill: #D60B28;"/><path d="M0 0 C18.15 0 36.3 0 55 0 C51.79726891 22.41911765 51.79726891 22.41911765 49.7578125 32.86328125 C48.65942183 38.66352964 47.83965983 44.50924098 47.00195312 50.35180664 C46.88529297 51.1586792 46.76863281 51.96555176 46.6484375 52.796875 C46.54708496 53.51198242 46.44573242 54.22708984 46.34130859 54.96386719 C46.00056521 56.99662813 45.49989547 59.00041813 45 61 C56.22 61 67.44 61 79 61 C79 70.00072925 79 70.00072925 78.46508789 72.98168945 C78.34819107 73.6521077 78.23129425 74.32252594 78.1108551 75.01325989 C77.98274948 75.70626694 77.85464386 76.39927399 77.72265625 77.11328125 C77.52644936 78.21762764 77.52644936 78.21762764 77.32627869 79.34428406 C77.0512258 80.88513057 76.77291409 82.42539867 76.49145508 83.96508789 C76.06067362 86.32249467 75.6398491 88.68151496 75.22070312 91.04101562 C74.9510928 92.54437352 74.68093019 94.0476325 74.41015625 95.55078125 C74.22103416 96.60547356 74.22103416 96.60547356 74.02809143 97.68147278 C73.50352754 100.54205229 72.92129674 103.23610978 72 106 C60.45 106 48.9 106 37 106 C36.154375 111.65125 35.30875 117.3025 34.4375 123.125 C31.67298858 141.32988302 28.47426211 159.43547185 25.02728271 177.52268982 C23.87464149 183.58413681 22.8249932 189.44504253 22.6875 195.625 C22.65011719 196.73101562 22.61273437 197.83703125 22.57421875 198.9765625 C23.09206318 202.65373303 24.13160143 203.73295401 27 206 C29.57211322 207.28605661 31.56906966 207.21043941 34.4453125 207.31640625 C35.52167969 207.35830078 36.59804688 207.40019531 37.70703125 207.44335938 C38.83496094 207.48267578 39.96289062 207.52199219 41.125 207.5625 C42.26066406 207.60568359 43.39632812 207.64886719 44.56640625 207.69335938 C47.37747768 207.7996604 50.18863945 207.90169405 53 208 C52.421035 215.0643814 51.64443777 222.05772572 50.5625 229.0625 C50.36346069 230.35957886 50.36346069 230.35957886 50.16040039 231.68286133 C48.27502225 243.81490953 48.27502225 243.81490953 47 249 C32.09528175 256.45235913 0.565169 252.42834711 -15 248 C-23.04850796 245.26080191 -28.32293758 241.50285105 -32.88671875 234.29296875 C-41.77599326 215.98418231 -34.83325609 191.30312948 -31.19226074 172.41815186 C-30.31399541 167.83753659 -29.4716435 163.25012233 -28.62155151 158.66421509 C-28.13932452 156.06535512 -27.6542661 153.46701885 -27.16629028 150.86923218 C-25.10284287 139.80935865 -23.29014565 128.71689218 -21.57002258 117.59898376 C-21.37764511 116.36886063 -21.18526764 115.13873749 -20.98706055 113.87133789 C-20.81981979 112.78317276 -20.65257904 111.69500763 -20.48027039 110.5738678 C-20 108 -20 108 -19 106 C-29.23 106 -39.46 106 -50 106 C-49.3848379 99.84837896 -48.7442946 93.91963094 -47.625 87.875 C-47.43091553 86.80463501 -47.43091553 86.80463501 -47.23291016 85.71264648 C-46.96253053 84.22686313 -46.69022449 82.74142908 -46.41601562 81.25634766 C-45.99591371 78.97783713 -45.58350415 76.69802357 -45.171875 74.41796875 C-44.90669999 72.96606358 -44.64109113 71.51423756 -44.375 70.0625 C-44.25205566 69.3823584 -44.12911133 68.7022168 -44.00244141 68.00146484 C-43.11533566 63.23067132 -43.11533566 63.23067132 -42 61 C-31.44 61 -20.88 61 -10 61 C-9.90589844 58.61265625 -9.81179688 56.2253125 -9.71484375 53.765625 C-9.23236962 44.481098 -7.74927615 35.45794565 -6.04370117 26.32958984 C-5.55553473 23.71266104 -5.08436078 21.09305886 -4.61523438 18.47265625 C-4.308263 16.78888513 -4.00035588 15.10528427 -3.69140625 13.421875 C-3.55174942 12.64793396 -3.41209259 11.87399292 -3.26820374 11.07659912 C-2.51623388 7.08731888 -1.52473711 3.81184277 0 0 Z " transform="translate(645,139)" style="fill: #D60B28;"/><path d="M0 0 C17.16 0 34.32 0 52 0 C51.34 4.95 50.68 9.9 50 15 C50.99 13.783125 51.98 12.56625 53 11.3125 C58.25742296 5.31160309 64.88836805 0.55776478 73.07055664 -0.18896484 C75.38386016 -0.26806506 77.68553001 -0.27291554 80 -0.25 C80.78117187 -0.25773438 81.56234375 -0.26546875 82.3671875 -0.2734375 C86.96876368 -0.25794398 90.6709182 0.25171697 95 2 C94.42722206 8.57338861 93.56869965 15.02045109 92.37109375 21.5078125 C92.1401577 22.78505692 92.1401577 22.78505692 91.90455627 24.08810425 C91.41919808 26.7677498 90.92845256 29.44637441 90.4375 32.125 C90.10445845 33.95826811 89.77177305 35.79160095 89.43945312 37.625 C88.63041007 42.084091 87.81653903 46.54227583 87 51 C85.37082642 51.08761597 85.37082642 51.08761597 83.70874023 51.17700195 C82.26284547 51.25970831 80.81696398 51.34264707 79.37109375 51.42578125 C78.65771851 51.46352661 77.94434326 51.50127197 77.20935059 51.54016113 C67.33702684 52.12022028 58.53576528 54.25592991 51 61 C43.95374565 69.16518745 42.76882448 78.78491939 40.8125 89.0625 C40.49321533 90.73397095 40.49321533 90.73397095 40.16748047 92.43920898 C36.25147559 113.09216863 32.55581216 133.78853608 29.03125 154.51171875 C28.8706308 155.45604263 28.7100116 156.40036652 28.54452515 157.37330627 C27.7653646 161.96106118 26.99049361 166.54949782 26.22119141 171.13891602 C26.07943481 171.97932938 25.93767822 172.81974274 25.79162598 173.68562317 C25.52635375 175.25835518 25.26297519 176.83140821 25.00183105 178.40483093 C24.50072554 181.36785518 23.95217014 184.14348959 23 187 C4.85 187 -13.3 187 -32 187 C-28.71659804 157.44938233 -28.71659804 157.44938233 -25.54083252 142.62353516 C-24.51178593 137.63171274 -23.63468806 132.61214024 -22.74609375 127.59375 C-22.55665192 126.52447266 -22.36721008 125.45519531 -22.17202759 124.35351562 C-21.78631832 122.16927987 -21.40159065 119.98487057 -21.01782227 117.80029297 C-20.4380156 114.50293221 -19.85301684 111.20652116 -19.26757812 107.91015625 C-17.39054104 97.28934157 -15.61044127 86.66680616 -14.05162048 75.99455261 C-12.9859909 68.75188221 -11.71942564 61.55466108 -10.38049316 54.35806274 C-9.98582133 52.2362743 -9.59543064 50.11373315 -9.20605469 47.9909668 C-8.69648927 45.21381166 -8.18582263 42.43686459 -7.67382812 39.66015625 C-5.73281096 29.11677604 -3.85141534 18.59613855 -2.52734375 7.953125 C-2 5 -2 5 0 0 Z " transform="translate(265,200)" style="fill: #D60B28;"/></svg>