<?xml version="1.0" encoding="UTF-8" standalone="no"?>
<svg
   xmlns:dc="http://purl.org/dc/elements/1.1/"
   xmlns:cc="http://creativecommons.org/ns#"
   xmlns:rdf="http://www.w3.org/1999/02/22-rdf-syntax-ns#"
   xmlns:svg="http://www.w3.org/2000/svg"
   xmlns="http://www.w3.org/2000/svg"
   viewBox="0 0 1543.75 337.5"
   height="337.5"
   width="1543.75"
   version="1.1"
   id="svg2">
  <title
     id="title4205">Zortrax logo</title>
  <metadata
     id="metadata8">
    <rdf:RDF>
      <cc:Work
         rdf:about="">
        <dc:format>image/svg+xml</dc:format>
        <dc:type
           rdf:resource="http://purl.org/dc/dcmitype/StillImage" />
        <dc:title>Zortrax logo</dc:title>
        <cc:license
           rdf:resource="http://creativecommons.org/licenses/by-sa/3.0/" />
        <dc:date>2015-04-17</dc:date>
        <dc:creator>
          <cc:Agent>
            <dc:title>JDX</dc:title>
          </cc:Agent>
        </dc:creator>
        <dc:source>https://zortrax.pl/media/download/151</dc:source>
      </cc:Work>
      <cc:License
         rdf:about="http://creativecommons.org/licenses/by-sa/3.0/">
        <cc:permits
           rdf:resource="http://creativecommons.org/ns#Reproduction" />
        <cc:permits
           rdf:resource="http://creativecommons.org/ns#Distribution" />
        <cc:requires
           rdf:resource="http://creativecommons.org/ns#Notice" />
        <cc:requires
           rdf:resource="http://creativecommons.org/ns#Attribution" />
        <cc:permits
           rdf:resource="http://creativecommons.org/ns#DerivativeWorks" />
        <cc:requires
           rdf:resource="http://creativecommons.org/ns#ShareAlike" />
      </cc:License>
    </rdf:RDF>
  </metadata>
  <defs
     id="defs6" />
  <path
     id="path4202"
     d="m 320.625,334.19848 c -65.50555,-10.3229 -111.875,-63.106 -111.875,-127.34913 0,-57.47701 39.89978,-108.048351 97.28071,-123.299321 12.2943,-3.267636 37.45895,-4.424021 51.52279,-2.367614 61.15981,8.942746 106.43489,59.091135 109.52821,121.317585 1.74765,35.15619 -10.50438,66.80628 -35.83171,92.56233 -25.74036,26.17609 -53.82646,38.44652 -90,39.31973 -9.28125,0.22405 -18.5625,0.14144 -20.625,-0.18358 z m 38.75,-55.68514 c 22.61394,-7.48733 41.8979,-28.83242 47.49499,-52.57138 1.01368,-4.29932 1.84306,-12.59821 1.84306,-18.44196 0,-21.77906 -6.9406,-38.53096 -22.31898,-53.86929 -23.35583,-23.29502 -55.85528,-27.3699 -84.48332,-10.59275 -7.78326,4.5613 -19.02331,16.04157 -24.11283,24.62817 -23.58002,39.78215 -6.76406,92.45733 34.92364,109.39656 14.32903,5.82241 31.80793,6.3659 46.65344,1.45065 z m 754.0499,54.59044 c -50.7562,-9.6053 -86.622,-46.16033 -96.5286,-98.38337 -2.8027,-14.77453 -2.4983,-40.74851 0.659,-56.2418 9.8265,-48.21957 43.502,-83.834025 90.2504,-95.44685 11.9688,-2.973204 40.6602,-3.745316 52.8193,-1.421421 20.5082,3.919609 37.0501,13.125262 50.5311,28.120741 l 7.5461,8.39392 0.024,-16.5625 0.024,-16.5625 26.25,0 26.25,0 0,122.5 0,122.5 -26.25,0 -26.25,0 0,-16.39206 0,-16.39207 -11.265,10.7201 c -8.8851,8.45533 -13.7046,11.91685 -22.8125,16.38472 -6.3511,3.11552 -14.9225,6.55922 -19.0475,7.65266 -10.7078,2.83839 -39.8411,3.46929 -52.2001,1.13043 z M 1165,279.77809 c 23.8611,-5.6429 43.6023,-25.61572 49.3282,-49.90698 2.5245,-10.70951 2.4658,-31.89721 -0.1171,-42.29125 -5.9831,-24.07742 -22.8489,-43.00956 -45.2576,-50.80252 -18.4645,-6.42134 -39.375,-4.96956 -57.5935,3.9986 -46.3341,22.8083 -52.3949,98.21167 -10.2691,127.76121 17.3714,12.18539 41.7694,16.47674 63.909,11.24094 z M 3.75,303.93635 3.75,277.8727 77.8125,181.47839 151.875,85.08407 166.5625,85.042035 181.25,85 l 0,26.13819 0,26.13818 -73.96363,96.36182 L 33.322749,330 18.536374,330 3.75,330 l 0,-26.06365 z m 57.70453,24.86201 c 0.231259,-0.67345 9.053086,-12.49109 19.604063,-26.26141 L 100.24219,277.5 l 44.90426,0 44.90427,0 -0.33786,25.9375 -0.33786,25.9375 -64.17047,0.32391 c -41.484724,0.2094 -64.021824,-0.109 -63.75,-0.90055 z m 443.12881,0.3683 C 504.125,328.70834 503.75,273.58334 503.75,206.66666 L 503.75,85 l 26.875,0 26.875,0 0.0876,20.3125 0.0876,20.3125 2.15365,-6.3089 c 7.55752,-22.138698 27.58654,-34.1063 57.3586,-34.27249 L 625,85 l 0,27.33854 0,27.33855 -7.1875,0.81392 c -20.82904,2.35873 -39.82204,13.90123 -48.19835,29.29125 -6.79998,12.49381 -7.07557,16.03428 -7.09567,91.15524 L 562.5,330 l -28.54166,0 c -15.69793,0 -28.91668,-0.375 -29.375,-0.83334 z M 692.5,235 l 0,-95 -22.5,0 -22.5,0 0,-27.5 0,-27.5 22.5,0 22.5,0 0,-40.625 0,-40.625 28.75,0 28.75,0 0,40.625 0,40.625 52.5,0 52.5,0 0,27.5 0,27.5 -52.5,0 -52.5,0 0,95 0,95 -28.75,0 -28.75,0 0,-95 z m 185,-27.5 0,-122.5 26.875,0 26.875,0 0.0871,20.3125 c 0.0861,20.10535 0.10637,20.24944 1.98481,14.12811 3.4206,-11.14704 12.32716,-21.526156 23.27537,-27.123579 7.82812,-4.002224 16.34478,-5.95548 29.96525,-6.872387 l 12.1875,-0.820443 0,27.687899 0,27.6879 -2.8125,0.0217 c -6.34572,0.049 -20.78788,3.97331 -29.03387,7.88931 -10.19353,4.84089 -19.37394,13.39675 -23.84773,22.22536 -6.84507,13.5081 -6.97868,15.06957 -7.71586,90.17613 L 934.65605,330 l -28.57802,0 -28.57803,0 0,-122.5 z m 421.4584,121.48493 c 0.2291,-0.5583 37.8229,-55.66569 83.5416,-122.46087 l 83.125,-121.445788 31.7063,-0.03914 31.7062,-0.03914 -2.2227,3.4375 c -8.177,12.645678 -159.993,237.624138 -161.5309,239.374998 -1.737,1.97769 -5.03,2.1875 -34.3318,2.1875 -17.8257,0 -32.223,-0.45679 -31.9937,-1.01507 z m 173.1541,-3.04743 c -4.9696,-6.69701 -38.6117,-56.44819 -39.2207,-58.00108 -0.7413,-1.8902 31.0283,-49.53881 32.1902,-48.2796 1.7485,1.89478 74.918,109.00176 74.918,109.66638 0,0.37224 -14.5964,0.6768 -32.4364,0.6768 l -32.4363,0 -3.0148,-4.0625 z M 1342.5,134.22282 C 1325.6563,109.10413 1311.4251,87.75316 1310.8754,86.776232 1310.023,85.261681 1314.5438,85 1341.5605,85 l 31.6848,0 16.3618,24.4493 16.3619,24.4493 -15.6779,23.0507 c -8.6228,12.67789 -16.0127,23.02667 -16.422,22.9973 -0.4092,-0.0294 -14.5253,-20.60508 -31.3691,-45.72378 z M 10,111.25 10,85 l 57.591794,0 57.591796,0 -8.42895,10.9375 c -4.63592,6.01563 -13.77491,17.82813 -20.308854,26.25 L 84.565885,137.5 47.282943,137.5 10,137.5 10,111.25 Z"
     style="display:inline;fill:#000000;fill-opacity:1" />
</svg>
